<svg viewBox="0 -19 569.285 569" xmlns="http://www.w3.org/2000/svg"><path d="M521.582 94.965H388.816V47.55C388.786 21.375 367.574.164 341.402.133H227.598c-26.172.031-47.383 21.242-47.414 47.418v47.414H47.418C21.242 94.996.031 116.207 0 142.383V483.78c.031 26.176 21.242 47.387 47.418 47.418h474.164c26.176-.031 47.387-21.242 47.418-47.418V142.383c-.031-26.176-21.242-47.387-47.418-47.418zM199.148 47.55c0-15.715 12.739-28.453 28.45-28.453h113.8c15.715 0 28.45 12.738 28.45 28.453v47.414h-18.965V47.55c0-5.239-4.246-9.485-9.48-9.485H227.597c-5.235 0-9.48 4.246-9.48 9.485v47.414h-18.97zm37.934 47.414V57.03h94.836v37.934zM18.965 142.383c0-15.711 12.738-28.45 28.453-28.45h474.164c15.715 0 28.45 12.739 28.45 28.45v98.133l-218.114 95.96v-23.394a9.484 9.484 0 00-9.484-9.484h-75.868a9.484 9.484 0 00-9.484 9.484v23.395L18.965 240.516zM312.949 341.53h-56.898v-18.965h56.898zM256.051 360.5h56.898v28.45c0 15.71-12.734 28.448-28.449 28.448-15.71 0-28.45-12.738-28.45-28.449zm265.531 151.734H47.418c-15.715 0-28.453-12.738-28.453-28.453V261.238l218.117 95.969v31.742c0 26.188 21.23 47.418 47.418 47.418s47.418-21.23 47.418-47.418v-31.742l218.113-95.969v222.543c.004 15.715-12.734 28.453-28.449 28.453zm0 0"/><path d="M275.016 379.465h18.968v18.969h-18.968zm0 0"/></svg>