<svg viewBox="0 0 480 480" xmlns="http://www.w3.org/2000/svg"><path d="M440 0H152c-22.082.027-39.973 17.918-40 40v72h16V40c0-13.254 10.746-24 24-24h216v72c0 3.234 1.95 6.152 4.938 7.39s6.43.551 8.718-1.734L400 75.312l18.344 18.344A8.001 8.001 0 00424 96a7.849 7.849 0 003.063-.61A8.002 8.002 0 00432 88V16h8c13.254 0 24 10.746 24 24v400c0 13.254-10.746 24-24 24H152c-10.945.004-20.508-7.395-23.246-17.992l-15.488 4c4.562 17.66 20.496 29.996 38.734 29.992h288c22.082-.027 39.973-17.918 40-40V40c-.027-22.082-17.918-39.973-40-40zm-24 68.688l-10.344-10.344a8.004 8.004 0 00-11.312 0L384 68.687V16h32zm0 0"/><path d="M72 368h144a8 8 0 008-8v-39.84c-.04-17.847-11.852-33.531-29-38.488l-27-7.727v-10.152A39.82 39.82 0 00184 232v-8a8 8 0 008-8v-8c0-26.508-21.492-48-48-48s-48 21.492-48 48v8a8 8 0 008 8v8a39.82 39.82 0 0016 31.793v10.152l-26.992 7.72C75.855 286.62 64.039 302.308 64 320.16V360a8 8 0 008 8zm72-192c17.59 0 31.883 14.195 32 31.785a8.006 8.006 0 01-5.281-4.219l-3.559-7.132a8 8 0 00-11.602-3.09l-11.902 7.937A39.824 39.824 0 01121.465 208H112c0-17.672 14.328-32 32-32zm-22.535 48a55.755 55.755 0 0031.062-9.406l4.383-2.922a23.633 23.633 0 0011.09 10V232c0 13.254-10.746 24-24 24s-24-10.746-24-24v-8zM144 272a39.869 39.869 0 008-.8v8.8a7.914 7.914 0 002.762 5.922L144 294l-10.762-8.078A7.914 7.914 0 00136 280v-8.8c2.633.534 5.313.804 8 .8zm-64 48.16a24.11 24.11 0 0117.398-23.113l17.403-4.969 24.398 18.32a7.992 7.992 0 009.602 0l24.398-18.32 17.41 4.977A24.093 24.093 0 01208 320.16V352h-16v-32h-16v32h-64v-32H96v32H80zm0 0"/><path d="M240 424v-24h8a8 8 0 008-8V136a8 8 0 00-8-8H40a8 8 0 00-8 8v24H8a8 8 0 00-8 8v256a8 8 0 008 8h224a8 8 0 008-8zM48 144h192v240H48zM16 416V176h16v216a8 8 0 008 8h184v16zm0 0M160 48h64v16h-64zm0 0M160 80h64v16h-64zm0 0M288 128h144v16H288zm0 0M288 176h144v16H288zm0 0M288 224h144v16H288zm0 0M288 272h144v16H288zm0 0M288 320h144v16H288zm0 0M288 368h144v16H288zm0 0"/></svg>