<svg xmlns="http://www.w3.org/2000/svg" viewBox="0 0 290.883 290.883"><path fill="#4dd6fc" d="M145.444 248.566c-56.864 0-103.125-46.261-103.125-103.125S88.58 42.316 145.444 42.316s103.125 46.261 103.125 103.125-46.261 103.125-103.125 103.125zm0-187.5c-46.523 0-84.375 37.852-84.375 84.375s37.852 84.375 84.375 84.375 84.375-37.852 84.375-84.375-37.852-84.375-84.375-84.375z"/><path d="M267.319 145.441c0-4.898-.295-9.816-.877-14.672l24.441-7.941-14.48-44.583-24.469 7.945a122.1055 122.1055 0 00-17.236-23.728L249.82 41.66l-37.922-27.558-15.122 20.808c-8.911-4.148-18.262-7.191-27.895-9.075V.129h-46.875v25.706c-9.633 1.88-18.984 4.927-27.895 9.075L78.994 14.107 41.067 41.66l15.122 20.803c-6.67 7.177-12.45 15.131-17.236 23.728l-24.464-7.945L.005 122.829l24.445 7.941c-.586 4.856-.881 9.773-.881 14.672s.295 9.816.877 14.672L0 168.054l14.484 44.583 24.464-7.945a122.1055 122.1055 0 0017.236 23.728l-15.117 20.803 37.922 27.558 15.117-20.803c8.911 4.148 18.262 7.191 27.895 9.075v25.702h46.875v-25.706c9.633-1.88 18.984-4.927 27.895-9.075l15.117 20.803 37.922-27.558-15.122-20.803c6.67-7.177 12.45-15.131 17.236-23.728l24.469 7.945 14.48-44.583-24.441-7.941c.591-4.852.887-9.769.887-14.668zm11.756 28.627l-8.691 26.756-23.067-7.5-1.828 3.544c-5.302 10.294-12.103 19.655-20.212 27.83l-2.812 2.831 14.259 19.627-22.753 16.533-14.259-19.631-3.562 1.805c-10.313 5.222-21.314 8.798-32.7 10.636l-3.942.628v24.253h-28.125v-24.253l-3.942-.638c-11.386-1.837-22.387-5.409-32.7-10.636l-3.563-1.805-14.259 19.631-22.753-16.533 14.259-19.627-2.813-2.831c-8.109-8.17-14.911-17.531-20.212-27.83l-1.828-3.544-23.067 7.5-8.691-26.756 23.044-7.486-.605-3.938c-.867-5.648-1.308-11.433-1.308-17.194s.441-11.545 1.308-17.208l.605-3.938-23.044-7.486 8.691-26.756 23.067 7.5 1.828-3.544c5.3-10.292 12.102-19.653 20.211-27.828l2.813-2.831-14.26-19.626L76.917 27.19l14.259 19.631 3.563-1.805c10.313-5.222 21.314-8.798 32.7-10.636l3.942-.623V9.504h28.125v24.253l3.942.637c11.386 1.838 22.387 5.409 32.7 10.636l3.562 1.805 14.259-19.631 22.753 16.533-14.259 19.627 2.812 2.831c8.109 8.17 14.911 17.531 20.212 27.83l1.828 3.544 23.067-7.5 8.691 26.756-23.048 7.486.605 3.938c.872 5.648 1.313 11.433 1.313 17.194s-.441 11.545-1.308 17.208l-.605 3.938 23.045 7.479z"/><path d="M179.616 89.519l-13.547 8.916 5.156 7.828 21.816-14.358-3.164-26.569-9.309 1.106 1.641 13.781c-28.837-16.252-65.831-11.78-89.794 12.183-26.437 26.438-29.25 68.77-6.544 98.475l7.448-5.695c-19.866-25.987-17.4-63.023 5.728-86.152 21.515-21.515 55.073-25.119 80.569-9.515zM197.573 105.696c19.866 25.987 17.4 63.023-5.728 86.152-21.525 21.52-55.083 25.125-80.578 9.52l13.552-8.92-5.156-7.828-21.816 14.358 3.164 26.569 9.309-1.106-1.641-13.758c11.414 6.431 24.089 9.661 36.75 9.661 19.327 0 38.569-7.392 53.039-21.867 26.437-26.438 29.25-68.77 6.544-98.475l-7.439 5.694z"/></svg>