<svg xmlns="http://www.w3.org/2000/svg" viewBox="0 0 285.334 285.334"><path fill="#4dd6fc" d="M160.1536 28.1223l18.751-28.1284L207.033 18.745l-18.751 28.1283z"/><path d="M168.385 238.191c1.847-.67 3.563-1.702 5.016-3.127 3.169-3.113 4.65-7.42 4.064-11.827l-7.931-59.48v-42.258l34.589-12.352c4.341-1.552 7.552-5.33 8.377-9.867l5.259-28.936 43.008 27.366 5.034-7.912-46.528-29.606c-.108-3.033-1.205-5.972-3.192-8.353-2.63-3.15-6.492-4.959-10.598-4.959-1.913 0-3.717.417-5.377 1.111l-37.43-23.817-5.034 7.913 35.466 22.566c-.591 1.223-1.05 2.527-1.27 3.933l-4.35 28.27-27.516 9.314c-5.133-4.547-11.742-7.102-18.563-7.102-6.038 0-11.845 1.959-16.973 5.803l-1.448 1.2c-.352.305-8.03 7.28-14.391 13.059V94.257c0-7.106-5.044-13.284-11.733-14.372-4.12-.68-8.288.483-11.433 3.159-3.155 2.677-4.959 6.581-4.959 10.711v38.217c0 9.942 8.091 18.033 18.033 18.033 4.467 0 8.752-1.645 12.061-4.631l2.719-2.442v20.827l-7.884 59.137c-.9 6.75 2.963 13.111 9.042 15.291-7.477 2.109-14.756 5.072-21.642 8.977l-52.964 30.014 4.622 8.156 52.964-30.014c27.136-15.37 60.849-15.375 87.98 0l52.964 30.014 4.622-8.156-52.964-30.014c-6.889-3.901-14.168-6.863-21.64-8.973zm-64.093-99.783c-1.589 1.434-3.647 2.222-5.789 2.222-4.772 0-8.658-3.886-8.658-8.658V93.755c0-1.378.6-2.681 1.655-3.572 1.069-.905 2.433-1.27 3.858-1.05 2.166.356 3.863 2.606 3.863 5.123v36.061l7.838-7.125s21.281-19.341 21.994-19.973l1.177-.98c7.716-5.775 18.652-4.613 25.027 2.442l2.062 2.283 38.564-13.055 5.213-33.9c.014-.08.061-.141.075-.22l8.044 5.119-5.944 32.695c-.23 1.247-1.111 2.287-2.306 2.714l-40.807 14.579v49.172l8.011 60.408c.192 1.453-.295 2.873-1.341 3.9-.609.605-1.945 1.58-3.994 1.256-1.936-.295-3.553-2.119-3.848-4.341l-8.789-65.911h-17.583l-8.841 66.314a4.6015 4.6015 0 01-2.03 3.234c-1.13.75-2.512.952-3.895.577-2.095-.581-3.488-2.934-3.164-5.367l7.927-59.452.047-42.806-18.366 16.528zm24.469 96.821c2.32-2.189 3.881-5.086 4.308-8.292l7.753-58.181h1.167l7.706 57.778c.459 3.436 2.1 6.473 4.448 8.709a99.5514 99.5514 0 00-25.382-.014z"/><path d="M169.533 60.943c0-15.511-12.614-28.125-28.125-28.125s-28.125 12.614-28.125 28.125 12.614 28.125 28.125 28.125 28.125-12.614 28.125-28.125zm-28.125 18.75c-10.341 0-18.75-8.409-18.75-18.75s8.409-18.75 18.75-18.75 18.75 8.409 18.75 18.75-8.409 18.75-18.75 18.75zM253.908 126.568h-9.375v9.375h-9.375v9.375h9.375v9.375h9.375v-9.375h9.375v-9.375h-9.375zM216.408 173.443v-4.688h4.688v-9.375h-4.688v-4.687h-9.375v4.687h-4.687v9.375h4.687v4.688zM244.533 168.755h-9.375v9.375h-9.375v9.375h9.375v9.375h9.375v-9.375h9.375v-9.375h-9.375zM71.095 42.193h9.375v-9.375h9.375v-9.375H80.47v-9.375h-9.375v9.375H61.72v9.375h9.375zM33.595 28.13v-4.687h4.688v-9.375h-4.688V9.38H24.22v4.688h-4.687v9.375h4.687v4.687zM47.658 70.318v-9.375h9.375v-9.375h-9.375v-9.375h-9.375v9.375h-9.375v9.375h9.375v9.375z"/></svg>