<svg xmlns="http://www.w3.org/2000/svg" viewBox="0 0 295.239 295.239"><path fill="#4dd6fc" d="M52.381 104.762h190.476v109.524H52.381z"/><path d="M261.905 100c0-4.662-2.281-8.771-5.748-11.381l19.233-23.081c1.71.729 3.59 1.129 5.562 1.129 7.876 0 14.286-6.41 14.286-14.286s-6.41-14.286-14.286-14.286-14.286 6.41-14.286 14.286c0 2.424.662 4.671 1.733 6.676L246.18 85.714H47.619c-7.876 0-14.286 6.41-14.286 14.286v123.81H0v19.048c0 7.876 6.41 14.286 14.286 14.286h266.667c7.876 0 14.286-6.41 14.286-14.286V223.81h-33.333V100h-.001zm19.047-52.381c2.624 0 4.762 2.138 4.762 4.762s-2.138 4.762-4.762 4.762-4.762-2.138-4.762-4.762 2.138-4.762 4.762-4.762zM42.857 100c0-2.624 2.138-4.762 4.762-4.762h190.629l-56.495 67.795c-1.71-.729-3.59-1.129-5.562-1.129-3.843 0-7.319 1.543-9.89 4.019l-33.143-16.571c.071-.576.176-1.143.176-1.733 0-7.876-6.41-14.286-14.286-14.286s-14.286 6.41-14.286 14.286c0 2.2.538 4.257 1.433 6.119l-23.881 23.881c-1.867-.89-3.924-1.429-6.124-1.429-7.876 0-14.286 6.41-14.286 14.286 0 7.876 6.41 14.286 14.286 14.286s14.286-6.41 14.286-14.286c0-2.2-.538-4.257-1.433-6.119l23.881-23.881c1.867.89 3.924 1.429 6.124 1.429 3.843 0 7.319-1.543 9.89-4.019l33.143 16.571c-.071.576-.176 1.143-.176 1.733 0 7.876 6.41 14.286 14.286 14.286s14.286-6.41 14.286-14.286c0-2.424-.662-4.671-1.733-6.676l61.276-73.533c1.386.838 2.362 2.29 2.362 4.019v123.81H42.857V100zm138.095 76.19c0 2.624-2.138 4.762-4.762 4.762s-4.762-2.138-4.762-4.762 2.138-4.762 4.762-4.762c2.624.001 4.762 2.139 4.762 4.762zm-66.666-28.571c0-2.624 2.138-4.762 4.762-4.762s4.762 2.138 4.762 4.762-2.138 4.762-4.762 4.762-4.762-2.138-4.762-4.762zm-33.334 42.857c0 2.624-2.138 4.762-4.762 4.762s-4.762-2.138-4.762-4.762 2.138-4.762 4.762-4.762 4.762 2.138 4.762 4.762zm204.762 42.857v9.524c0 2.624-2.138 4.762-4.762 4.762H14.286c-2.624 0-4.762-2.138-4.762-4.762v-9.524h276.19z"/></svg>