<svg xmlns="http://www.w3.org/2000/svg" viewBox="0 0 295.239 295.239"><path fill="#4dd6fc" d="M204.762.001H42.857v295.238h209.524V52.382z"/><path d="M252.381 52.382h-47.619V.001h-9.524v61.905h57.143zM271.429 100.001H108.081l-35.714 23.81 35.714 23.81h163.348c13.129 0 23.81-10.681 23.81-23.81s-10.682-23.81-23.81-23.81zm-166.667 13.657v20.3l-15.224-10.147 15.224-10.153zm157.143 24.438H114.286v-9.524h133.333v-9.524H114.286v-9.524h147.619v28.572zm9.524 0v-28.571c7.876 0 14.286 6.41 14.286 14.286s-6.41 14.285-14.286 14.285zM0 247.62h228.571v-66.667H0v66.667zm9.524-57.143h9.524v14.286h9.524v-14.286h9.524v14.286h9.524v-14.286h9.524v23.81h9.524v-23.81h9.524v14.286h9.524v-14.286h9.524v14.286h9.524v-14.286h9.524v23.81h9.524v-23.81h9.524v14.286h9.524v-14.286h9.524v14.286h9.524v-14.286h9.524v23.81h9.524v-23.81h38.095v47.62H9.524v-47.62z"/><path d="M204.762 200.001c-7.876 0-14.286 6.41-14.286 14.286 0 7.876 6.41 14.286 14.286 14.286s14.286-6.41 14.286-14.286c0-7.876-6.41-14.286-14.286-14.286zm0 19.048c-2.624 0-4.762-2.133-4.762-4.762s2.138-4.762 4.762-4.762 4.762 2.133 4.762 4.762c0 2.628-2.138 4.762-4.762 4.762zM66.667 23.811h114.286v9.524H66.667zM66.667 47.62h114.286v9.524H66.667zM66.667 71.43h114.286v9.524H66.667z"/></svg>