<svg viewBox="-6 0 511 512" xmlns="http://www.w3.org/2000/svg"><path d="M355.398 172.852v.003a7.648 7.648 0 001.336 1.934l17.391 18.586a7.537 7.537 0 005.52 2.395 7.557 7.557 0 005.516-12.723l-5.524-5.906h18.308c1.016 0 1.875.859 1.875 1.875v93.246a7.555 7.555 0 007.555 7.554 7.556 7.556 0 007.559-7.554v-93.246c0-9.368-7.622-16.989-16.989-16.989h-18.308l5.523-5.906a7.552 7.552 0 00-.355-10.68 7.552 7.552 0 00-10.68.356l-17.39 18.582a7.593 7.593 0 00-1.333 1.926 7.562 7.562 0 00-.746 3.285 7.547 7.547 0 00.742 3.262zm0 0M147.848 284.777l-16.364-17.504a7.564 7.564 0 00-10.683-.359 7.564 7.564 0 00-.36 10.684l4.516 4.828H108.68c-.7 0-1.317-.617-1.317-1.32v-87.93a7.557 7.557 0 10-15.113 0v87.93c0 9.062 7.371 16.433 16.434 16.433h16.273l-4.512 4.828a7.552 7.552 0 00.36 10.68 7.526 7.526 0 005.16 2.039 7.532 7.532 0 005.52-2.399l16.363-17.5a7.372 7.372 0 001.351-1.968 7.506 7.506 0 00.727-3.239c0-1.105-.238-2.21-.727-3.234a7.463 7.463 0 00-1.351-1.969zm0 0"/><path d="M466.371 54.184h-126.52V16.492C339.852 7.398 332.454 0 323.36 0H177.168c-9.094 0-16.492 7.398-16.492 16.492v37.692H33.602C15.348 54.184.5 69.66.5 88.688v308.757c0 19.028 14.848 34.504 33.102 34.504H144.64l-6.313 17.7H125.79c-17.187 0-31.172 13.988-31.172 31.175v17.34c0 7.629 6.203 13.836 13.832 13.836h275.106c7.629 0 13.836-6.207 13.836-13.836v-17.34c0-17.187-13.985-31.176-31.172-31.176h-15.145l-6.328-17.699h121.629c18.266 0 33.129-15.476 33.129-34.504V88.687c0-19.023-14.863-34.503-33.133-34.503zM175.79 239.414h148.945v11.012c0 .73-.64 1.375-1.375 1.375H177.168a1.396 1.396 0 01-1.379-1.375zm1.379-224.3h146.191a1.4 1.4 0 011.38 1.378v11.242h-148.95V16.492c0-.762.617-1.379 1.379-1.379zM33.602 69.3h127.074v17.875H45.16c-7.562 0-13.484 6.254-13.484 14.242v250.02c0 7.789 6.336 14.125 14.125 14.125H230.5a7.557 7.557 0 100-15.114H46.793V102.29h113.883v47.707a7.556 7.556 0 007.558 7.555 7.555 7.555 0 007.555-7.555V42.848h148.945V224.3H175.79v-42.074a7.557 7.557 0 10-15.113 0v68.199c0 9.09 7.398 16.488 16.492 16.488h146.191c9.094 0 16.493-7.398 16.493-16.488v-148.13l113.359.11V350.45l-186.902.29a7.562 7.562 0 00-7.547 7.57 7.557 7.557 0 007.558 7.546h.012l187.867-.293c7.79 0 14.125-6.335 14.125-14.125V101.418c0-7.79-6.336-14.129-14.117-14.129l-114.355-.11V69.302h126.52c9.933 0 18.015 8.695 18.015 19.386v293.204H15.613V88.687c0-10.69 8.07-19.386 17.989-19.386zm348.671 411.523v16.063H109.73v-16.063c0-8.855 7.204-16.058 16.06-16.058h240.425c8.855 0 16.058 7.203 16.058 16.058zm-47.25-31.176H154.375l6.313-17.699H328.69zm131.348-32.812H33.601c-9.917 0-17.988-8.7-17.988-19.39v-.442h468.774v.441c0 10.692-8.082 19.39-18.016 19.39zm0 0"/></svg>