<svg xmlns="http://www.w3.org/2000/svg" viewBox="0 0 512 512"><g data-name="Resume"><path d="M496 376h-32V192a24.027 24.027 0 00-24-24h-48V72a8 8 0 00-8-8H128a8 8 0 00-8 8v96H72a24.027 24.027 0 00-24 24v184H16a8 8 0 00-8 8v16a40.045 40.045 0 0040 40h416a40.045 40.045 0 0040-40v-16a8 8 0 00-8-8zM392 208h32v144h-32zM136 80h240v272H136zM64 192a8.009 8.009 0 018-8h48v8H80a8 8 0 00-8 8v160a8 8 0 008 8h352a8 8 0 008-8V200a8 8 0 00-8-8h-40v-8h48a8.009 8.009 0 018 8v184H64zm56 16v144H88V208zm172.9 184l-2.666 8h-68.468l-2.666-8zm195.1 8a24.027 24.027 0 01-24 24H48a24.027 24.027 0 01-24-24v-8h178.234l6.177 18.53A8 8 0 00216 416h80a8 8 0 007.589-5.47l6.177-18.53H488z"/><path d="M213.21 215.544a8.1 8.1 0 001.063.922 63.809 63.809 0 0083.4.047 8.048 8.048 0 001.194-1.034 64 64 0 10-85.656.065zm13.476-9.574c0-.212-.019-.427-.019-.637a29.333 29.333 0 0158.666 0c0 .21-.015.425-.019.637a47.852 47.852 0 01-58.628 0zm18.647-56.637A10.667 10.667 0 11256 160a10.679 10.679 0 01-10.667-10.667zM256 120a47.966 47.966 0 0142.651 69.978 45.575 45.575 0 00-21.336-24.64 26.667 26.667 0 10-42.63 0 45.575 45.575 0 00-21.336 24.64A47.966 47.966 0 01256 120zM336 248H176a8 8 0 000 16h160a8 8 0 000-16zM304 280H176a8 8 0 000 16h128a8 8 0 000-16zM96 400H56a8 8 0 000 16h40a8 8 0 000-16zM128 400h-8a8 8 0 000 16h8a8 8 0 000-16z"/></g></svg>