<svg viewBox="0 0 64 64" xmlns="http://www.w3.org/2000/svg"><path d="M19.223 14.981l33.626 33.625h2.823L20.64 13.564zM9.32 16.393l7.07-7.07 2.828 2.828-7.07 7.07zM36.251 26.357c.017-.02.023-.045.042-.064l4-4a1 1 0 011.414 1.414l-4 4c-.019.019-.044.025-.064.042l2.837 2.837 2.42-2.423a5.061 5.061 0 014.1-1.5 11.011 11.011 0 0012.218-11.977l-6 6a1 1 0 01-.905.273l-7.069-1.419a1 1 0 01-.783-.784l-1.421-7.069a1 1 0 01.273-.905l6-6A11.011 11.011 0 0037.333 17a5.057 5.057 0 01-1.5 4.1l-2.419 2.42zM27.749 37.644c-.017.019-.023.044-.042.063l-4 4a1 1 0 01-1.414-1.414l4-4c.019-.019.044-.025.063-.042l-2.836-2.837-2.42 2.423a5.047 5.047 0 01-4.1 1.5A11.011 11.011 0 004.782 49.314l6-6a1 1 0 01.9-.273l7.07 1.419a1 1 0 01.783.784l1.421 7.069a1 1 0 01-.274.905l-6 6A11.011 11.011 0 0026.667 47a5.057 5.057 0 011.5-4.1l2.423-2.423zM9.322 4.322a5 5 0 00-3.535 8.536l2.121 2.121 7.071-7.071-2.121-2.121a4.965 4.965 0 00-3.536-1.465zM58.269 54.448l-.961-3.842h-3.654l.469 2.34a1 1 0 01-1.177 1.177l-2.34-.468v3.653l3.843.962a6.926 6.926 0 013.82-3.822zM58.764 56.424a4.779 4.779 0 00-2.34 2.34l3.121.781zM51.867 51.867l-.354-1.768-33.704-33.704-1.414 1.414 33.704 33.705zM48.606 52.849L14.981 19.223l-1.417 1.417 35.042 35.032z"/></svg>