<svg xmlns="http://www.w3.org/2000/svg" viewBox="0 0 49.888 49.888" fill="#ffffff"><path d="M45.903 25.934l1.17-1.058 1.058 1.17-1.171 1.058zM43.179 27.234l1.561-1.406 1.406 1.562-1.561 1.406zM48.405 25.207l.78-.703.703.78-.78.703zM43.82 21.105l1.172-1.055 1.055 1.172-1.172 1.055zM47.408 22.876l.779-.703.704.78-.779.702zM5.233 22.239l-.765 3.965h-.053l-1.042-3.965h-.667l-.974 3.965h-.053L.84 22.239H0l1.214 5.314h.81l.989-3.741h.053l1.019 3.741h.81l1.215-5.314zM42.069 24.529l1.563-1.407 1.406 1.562-1.563 1.407zM40.954 21.866l1.562-1.406 1.406 1.562-1.562 1.406zM44.9 23.462l1.168-1.055 1.058 1.171-1.17 1.056zM46.404 20.56l.78-.703.703.78-.78.702zM34.355 23.842l-.851 2.761h-.045l-.959-2.76h-.824l1.438 3.749c-.18.555-.494.959-1.004.959v.613c.861 0 1.318-.539 1.693-1.574l1.355-3.748h-.803zM9.542 25.547c.001-1.225-.576-1.83-1.513-1.83-1.124 0-1.701.823-1.701 1.963 0 1.185.518 1.964 1.776 1.964.539 0 .989-.15 1.326-.347v-.567c-.412.245-.787.389-1.191.389-.771 0-1.139-.396-1.139-1.297h2.442v-.275zm-2.427-.228c.082-.748.435-1.101.892-1.101.405 0 .787.313.824 1.101H7.115zM46.934 28.3l1.171-1.056 1.057 1.172-1.172 1.056zM31.439 25.547c.002-1.225-.576-1.83-1.512-1.83-1.125 0-1.701.823-1.701 1.963 0 1.185.517 1.964 1.775 1.964.539 0 .987-.15 1.325-.347v-.567c-.411.245-.786.389-1.19.389-.771 0-1.14-.396-1.14-1.297h2.443v-.275zm-2.428-.228c.084-.748.437-1.101.894-1.101.403 0 .787.313.824 1.101h-1.718z"/><path d="M46.05 28.572l-1.527 1.408-2.578-2.869.717-.631-1.805-2.021.721-.632-1.832-2.019 2.859-2.574.908.994 1.533-1.368.906.939.604-.541a6.539 6.539 0 00-3.286-.881c-3.617 0-6.568 2.95-6.568 6.568 0 3.617 2.951 6.567 6.568 6.567a6.516 6.516 0 003.237-.856c.315-.178.602-.371.864-.574l-1.321-1.51zM12.016 23.717c-.405 0-.787.157-1.013.277v-2.136l-.779.187v5.231c.45.239 1.064.367 1.462.367 1.087 0 1.761-.683 1.761-2.085 0-1.197-.502-1.841-1.431-1.841zm-.33 3.401c-.188 0-.449-.014-.689-.119v-2.451c.3-.165.518-.247.816-.247.502 0 .848.308.848 1.258 0 1.214-.42 1.559-.975 1.559zM26.293 23.715c-.862 0-1.574.352-1.911.554v3.282h.778v-2.967c.232-.135.615-.27.914-.27.385 0 .676.105.676.697v2.541h.779V24.84c0-.771-.338-1.123-1.236-1.125zM18.499 22.239l-1.602 4.189h-.038l-1.679-4.189h-.906v5.314h.674V23.79h.067l1.529 3.763h.479l1.529-3.854h.067v3.854h.809v-5.314zM21.961 23.717c-.989 0-1.709.652-1.709 1.963 0 1.281.683 1.964 1.709 1.964 1.027 0 1.709-.683 1.709-1.964 0-1.312-.72-1.963-1.709-1.963zm0 3.401c-.532 0-.922-.41-.922-1.438 0-1.012.428-1.439.922-1.439.51 0 .922.427.922 1.439 0 1.027-.39 1.438-.922 1.438z"/></svg>