<?xml version="1.0" encoding="utf-8"?><svg xmlns="http://www.w3.org/2000/svg" xmlns:xlink="http://www.w3.org/1999/xlink"><symbol viewBox="0 0 480 480" id="accounting" xmlns="http://www.w3.org/2000/svg"><path d="M184 288c-44.184 0-80 35.816-80 80s35.816 80 80 80 80-35.816 80-80c-.047-44.164-35.836-79.953-80-80zm0 144c-35.348 0-64-28.652-64-64s28.652-64 64-64 64 28.652 64 64c-.04 35.328-28.672 63.96-64 64zm0 0"/><path d="M184 344c9.77 0 16 4.734 16 8h16c0-11.367-10.07-20.574-24-23.2V320h-16v8.8c-13.93 2.606-24 11.817-24 23.2 0 13.465 14.055 24 32 24 9.77 0 16 4.734 16 8s-6.23 8-16 8-16-4.734-16-8h-16c0 11.367 10.07 20.574 24 23.2v8.8h16v-8.8c13.93-2.606 24-11.817 24-23.2 0-13.465-14.055-24-32-24-9.77 0-16-4.734-16-8s6.23-8 16-8zm0 0"/><path d="M408 464H72V272h128c13.254 0 24-10.746 24-24V48h88v96h96v112h16V132.687L323.312 32H224v-8c0-13.254-10.746-24-24-24H24C10.746 0 0 10.746 0 24v224c0 13.254 10.746 24 24 24h32v208h368V368h-16zM328 59.312L396.688 128H328zM16 248V24a8 8 0 018-8h176a8 8 0 018 8v224a8 8 0 01-8 8H24a8 8 0 01-8-8zm0 0"/><path d="M256 200h16v16h-16zm32 0h96v16h-96zm-32-32h16v16h-16zm32 0h96v16h-96zm-32 64h16v16h-16zm32 0h96v16h-96zm-32 32h16v16h-16zm32 0h96v16h-96zM200 24H24v56h176zm-16 40H40V40h144zM64 88H48c-8.836 0-16 7.164-16 16v16c0 8.836 7.164 16 16 16h16c8.836 0 16-7.164 16-16v-16c0-8.836-7.164-16-16-16zm-16 32v-16h16v16zm72-32h-16c-8.836 0-16 7.164-16 16v16c0 8.836 7.164 16 16 16h16c8.836 0 16-7.164 16-16v-16c0-8.836-7.164-16-16-16zm-16 32v-16h16v16zm72-32h-16c-8.836 0-16 7.164-16 16v16c0 8.836 7.164 16 16 16h16c8.836 0 16-7.164 16-16v-16c0-8.836-7.164-16-16-16zm-16 32v-16h16v16zm-96 24H48c-8.836 0-16 7.164-16 16v16c0 8.836 7.164 16 16 16h16c8.836 0 16-7.164 16-16v-16c0-8.836-7.164-16-16-16zm-16 32v-16h16v16zm72-32h-16c-8.836 0-16 7.164-16 16v16c0 8.836 7.164 16 16 16h16c8.836 0 16-7.164 16-16v-16c0-8.836-7.164-16-16-16zm-16 32v-16h16v16zm72-32h-16c-8.836 0-16 7.164-16 16v16c0 8.836 7.164 16 16 16h16c8.836 0 16-7.164 16-16v-16c0-8.836-7.164-16-16-16zm-16 32v-16h16v16zm-96 24H48c-8.836 0-16 7.164-16 16v16c0 8.836 7.164 16 16 16h16c8.836 0 16-7.164 16-16v-16c0-8.836-7.164-16-16-16zm-16 32v-16h16v16zm72-32h-16c-8.836 0-16 7.164-16 16v16c0 8.836 7.164 16 16 16h16c8.836 0 16-7.164 16-16v-16c0-8.836-7.164-16-16-16zm-16 32v-16h16v16zm72-32h-16c-8.836 0-16 7.164-16 16v16c0 8.836 7.164 16 16 16h16c8.836 0 16-7.164 16-16v-16c0-8.836-7.164-16-16-16zm-16 32v-16h16v16zm312.734 23.266c-9.496-9.067-24.437-9.067-33.933 0l-137.145 137.14a8.095 8.095 0 00-1.601 2.313l-19.313 41.937a7.997 7.997 0 001.617 8.992 7.997 7.997 0 008.993 1.618l41.937-19.313a8.017 8.017 0 002.313-1.601l137.132-137.145c9.375-9.371 9.375-24.57 0-33.941zM325.29 414.016l-20.96 9.656 9.655-20.961 102.254-102.262 11.313 11.313zm113.598-113.602l-11.313-11.309 5.602-5.601 11.312 11.312zm22.562-22.559l-5.656 5.657-11.313-11.313 5.665-5.656a8.179 8.179 0 0111.304 0 8.004 8.004 0 010 11.312zm0 0"/></symbol><symbol viewBox="0 0 512 512" id="arrow" xmlns="http://www.w3.org/2000/svg"><path d="M506.134 241.843l-.018-.019-104.504-104c-7.829-7.791-20.492-7.762-28.285.068-7.792 7.829-7.762 20.492.067 28.284L443.558 236H20c-11.046 0-20 8.954-20 20s8.954 20 20 20h423.557l-70.162 69.824c-7.829 7.792-7.859 20.455-.067 28.284 7.793 7.831 20.457 7.858 28.285.068l104.504-104 .018-.019c7.833-7.818 7.808-20.522-.001-28.314z"/></symbol><symbol viewBox="0 0 447.243 447.243" id="back" xmlns="http://www.w3.org/2000/svg"><path d="M420.361 192.229a31.967 31.967 0 00-5.535-.41H99.305l6.88-3.2a63.998 63.998 0 0018.08-12.8l88.48-88.48c11.653-11.124 13.611-29.019 4.64-42.4-10.441-14.259-30.464-17.355-44.724-6.914a32.018 32.018 0 00-3.276 2.754l-160 160c-12.504 12.49-12.515 32.751-.025 45.255l.025.025 160 160c12.514 12.479 32.775 12.451 45.255-.063a32.084 32.084 0 002.745-3.137c8.971-13.381 7.013-31.276-4.64-42.4l-88.32-88.64a64.002 64.002 0 00-16-11.68l-9.6-4.32h314.24c16.347.607 30.689-10.812 33.76-26.88 2.829-17.445-9.019-33.88-26.464-36.71z"/></symbol><symbol viewBox="0 -19 569.285 569" id="briefcas" xmlns="http://www.w3.org/2000/svg"><path d="M521.582 94.965H388.816V47.55C388.786 21.375 367.574.164 341.402.133H227.598c-26.172.031-47.383 21.242-47.414 47.418v47.414H47.418C21.242 94.996.031 116.207 0 142.383V483.78c.031 26.176 21.242 47.387 47.418 47.418h474.164c26.176-.031 47.387-21.242 47.418-47.418V142.383c-.031-26.176-21.242-47.387-47.418-47.418zM199.148 47.55c0-15.715 12.739-28.453 28.45-28.453h113.8c15.715 0 28.45 12.738 28.45 28.453v47.414h-18.965V47.55c0-5.239-4.246-9.485-9.48-9.485H227.597c-5.235 0-9.48 4.246-9.48 9.485v47.414h-18.97zm37.934 47.414V57.03h94.836v37.934zM18.965 142.383c0-15.711 12.738-28.45 28.453-28.45h474.164c15.715 0 28.45 12.739 28.45 28.45v98.133l-218.114 95.96v-23.394a9.484 9.484 0 00-9.484-9.484h-75.868a9.484 9.484 0 00-9.484 9.484v23.395L18.965 240.516zM312.949 341.53h-56.898v-18.965h56.898zm-56.898 18.97h56.898v28.45c0 15.71-12.734 28.448-28.449 28.448-15.71 0-28.45-12.738-28.45-28.449zm265.531 151.734H47.418c-15.715 0-28.453-12.738-28.453-28.453V261.238l218.117 95.969v31.742c0 26.188 21.23 47.418 47.418 47.418s47.418-21.23 47.418-47.418v-31.742l218.113-95.969v222.543c.004 15.715-12.734 28.453-28.449 28.453zm0 0"/><path d="M275.016 379.465h18.968v18.969h-18.968zm0 0"/></symbol><symbol viewBox="0 0 480 480" id="business" xmlns="http://www.w3.org/2000/svg"><path d="M440 0H152c-22.082.027-39.973 17.918-40 40v72h16V40c0-13.254 10.746-24 24-24h216v72c0 3.234 1.95 6.152 4.938 7.39s6.43.551 8.718-1.734L400 75.312l18.344 18.344A8.001 8.001 0 00424 96a7.849 7.849 0 003.063-.61A8.002 8.002 0 00432 88V16h8c13.254 0 24 10.746 24 24v400c0 13.254-10.746 24-24 24H152c-10.945.004-20.508-7.395-23.246-17.992l-15.488 4c4.562 17.66 20.496 29.996 38.734 29.992h288c22.082-.027 39.973-17.918 40-40V40c-.027-22.082-17.918-39.973-40-40zm-24 68.688l-10.344-10.344a8.004 8.004 0 00-11.312 0L384 68.687V16h32zm0 0"/><path d="M72 368h144a8 8 0 008-8v-39.84c-.04-17.847-11.852-33.531-29-38.488l-27-7.727v-10.152A39.82 39.82 0 00184 232v-8a8 8 0 008-8v-8c0-26.508-21.492-48-48-48s-48 21.492-48 48v8a8 8 0 008 8v8a39.82 39.82 0 0016 31.793v10.152l-26.992 7.72C75.855 286.62 64.039 302.308 64 320.16V360a8 8 0 008 8zm72-192c17.59 0 31.883 14.195 32 31.785a8.006 8.006 0 01-5.281-4.219l-3.559-7.132a8 8 0 00-11.602-3.09l-11.902 7.937A39.824 39.824 0 01121.465 208H112c0-17.672 14.328-32 32-32zm-22.535 48a55.755 55.755 0 0031.062-9.406l4.383-2.922a23.633 23.633 0 0011.09 10V232c0 13.254-10.746 24-24 24s-24-10.746-24-24v-8zM144 272a39.869 39.869 0 008-.8v8.8a7.914 7.914 0 002.762 5.922L144 294l-10.762-8.078A7.914 7.914 0 00136 280v-8.8a39.95 39.95 0 008 .8zm-64 48.16a24.11 24.11 0 0117.398-23.113l17.403-4.969 24.398 18.32a7.992 7.992 0 009.602 0l24.398-18.32 17.41 4.977A24.093 24.093 0 01208 320.16V352h-16v-32h-16v32h-64v-32H96v32H80zm0 0"/><path d="M240 424v-24h8a8 8 0 008-8V136a8 8 0 00-8-8H40a8 8 0 00-8 8v24H8a8 8 0 00-8 8v256a8 8 0 008 8h224a8 8 0 008-8zM48 144h192v240H48zM16 416V176h16v216a8 8 0 008 8h184v16zM160 48h64v16h-64zm0 32h64v16h-64zm128 48h144v16H288zm0 48h144v16H288zm0 48h144v16H288zm0 48h144v16H288zm0 48h144v16H288zm0 48h144v16H288zm0 0"/></symbol><symbol viewBox="0 0 78.369 78.369" id="check" xmlns="http://www.w3.org/2000/svg"><path d="M78.049 19.015L29.458 67.606a1.094 1.094 0 01-1.548 0L.32 40.015a1.094 1.094 0 010-1.547l6.704-6.704a1.095 1.095 0 011.548 0l20.113 20.112 41.113-41.113a1.095 1.095 0 011.548 0l6.703 6.704a1.094 1.094 0 010 1.548z"/></symbol><symbol viewBox="0 0 492 492" id="close" xmlns="http://www.w3.org/2000/svg"><path d="M300.188 246L484.14 62.04c5.06-5.064 7.852-11.82 7.86-19.024 0-7.208-2.792-13.972-7.86-19.028L468.02 7.872C462.952 2.796 456.196.016 448.984.016c-7.2 0-13.956 2.78-19.024 7.856L246.008 191.82 62.048 7.872C56.988 2.796 50.228.016 43.02.016c-7.2 0-13.96 2.78-19.02 7.856L7.872 23.988c-10.496 10.496-10.496 27.568 0 38.052L191.828 246 7.872 429.952C2.808 435.024.02 441.78.02 448.984c0 7.204 2.788 13.96 7.852 19.028l16.124 16.116c5.06 5.072 11.824 7.856 19.02 7.856 7.208 0 13.968-2.784 19.028-7.856l183.96-183.952 183.952 183.952c5.068 5.072 11.824 7.856 19.024 7.856h.008c7.204 0 13.96-2.784 19.028-7.856l16.12-16.116c5.06-5.064 7.852-11.824 7.852-19.028 0-7.204-2.792-13.96-7.852-19.028L300.188 246z"/></symbol><symbol viewBox="0 0 511.874 511.874" id="contact" xmlns="http://www.w3.org/2000/svg"><path d="M490.114 12.813H132.568c-12.012.014-21.746 9.748-21.76 21.76v98.62l-16.35-24.525c-7.484-11.289-22.535-14.676-34.133-7.68l-33.638 20.224a49.355 49.355 0 00-22.545 29.244C-8.129 195.137.976 272.116 113.966 385.123c89.855 89.762 156.85 113.937 203.024 113.937 10.69.049 21.339-1.34 31.659-4.13a49.44 49.44 0 0029.252-22.519l20.198-33.673c6.968-11.589 3.584-26.609-7.68-34.091l-80.546-53.692c-11.049-7.308-25.859-4.905-34.031 5.521l-23.45 30.148a8.166 8.166 0 01-10.445 2.21l-4.463-2.458c-14.686-8.004-32.964-17.971-69.879-54.886a605.694 605.694 0 01-11.008-11.307h333.517c11.982.009 21.713-9.676 21.76-21.658V34.573c-.014-12.012-9.748-21.746-21.76-21.76zM229.318 401.362l4.335 2.381c10.897 6.093 24.614 3.266 32.213-6.639l23.45-30.148a8.294 8.294 0 0111.093-1.801l80.546 53.692a8.243 8.243 0 012.5 11.093l-20.198 33.673a32.425 32.425 0 01-19.123 14.848c-40.337 11.093-110.933 1.707-218.078-105.446S9.56 195.273 20.627 154.97a32.427 32.427 0 0114.839-19.123l33.673-20.207a8.251 8.251 0 0111.093 2.5l53.717 80.546a8.285 8.285 0 01-1.801 11.093l-30.157 23.458c-9.903 7.597-12.731 21.311-6.639 32.205l2.389 4.335c8.533 15.65 19.14 35.123 57.805 73.779 38.666 38.657 58.131 49.272 73.772 57.806zm265.49-102.836a4.659 4.659 0 01-4.693 4.608H141.203a215.204 215.204 0 01-28.476-41.506l-2.458-4.48a8.14 8.14 0 012.202-10.428l30.157-23.458c10.43-8.17 12.833-22.982 5.521-34.031l-20.275-30.43V34.573a4.642 4.642 0 014.693-4.693h357.547a4.642 4.642 0 014.693 4.693v263.953z"/><path d="M460.725 52.323l-142.618 108.16a11.512 11.512 0 01-13.534 0L162.008 52.323a8.535 8.535 0 00-11.959 1.643 8.535 8.535 0 001.643 11.959l142.583 108.151a28.721 28.721 0 0034.133 0L471.034 65.925a8.53 8.53 0 001.638-11.963 8.532 8.532 0 00-11.947-1.639zm-222.208 122.47l-87.415 93.611a8.535 8.535 0 0012.484 11.64l87.416-93.653a8.535 8.535 0 00-12.485-11.598zm146.211 0a8.534 8.534 0 00-12.062-.422 8.534 8.534 0 00-.422 12.062l87.39 93.611a8.534 8.534 0 0012.062.422 8.534 8.534 0 00.422-12.062l-87.39-93.611z"/></symbol><symbol viewBox="0 0 60 60" id="creativity" xmlns="http://www.w3.org/2000/svg"><path d="M51.768 44a13.42 13.42 0 00-.024-5.1l4.58-11.053a.17.17 0 000-.022 18.78 18.78 0 013.215-5.582 1.49 1.49 0 00.369-1.365l-1.878-8.11a.979.979 0 00-.1-.242c-.008-.015-.011-.033-.019-.047-.008-.014-.043-.048-.063-.074a1.008 1.008 0 00-.141-.165.929.929 0 00-.109-.066 1.016 1.016 0 00-.155-.094.988.988 0 00-.234-.057c-.023 0-.043-.015-.066-.017a1 1 0 00-.551.123c-.015.008-.033.011-.048.02h-.01l-7.061 4.407a1.492 1.492 0 00-.706 1.23 18.77 18.77 0 01-1.681 6.233v.011l-2.289 5.533a13.414 13.414 0 00-3.572-1.29 53.99 53.99 0 00.518-9.833 10.914 10.914 0 002.482-8.012C43.6 4.6 38.333.391 38.108.214a1 1 0 00-1.585 1.043c.515 1.934.069 3.975-3.735 8.172a5.852 5.852 0 00-1.371 6.377 7.763 7.763 0 001.424 2.3 70.05 70.05 0 00-.563 4.433 50.082 50.082 0 00-.174 7.092 13.606 13.606 0 00-2.49 1.735l-4.85-20.74c0-.021-.02-.036-.026-.055a.948.948 0 00-.07-.193l-4.954-9.149a2.309 2.309 0 00-4.338 1.016L15 12.64c0 .075.009.15.025.223v.045l4.948 21.117c-.78.034-1.555.15-2.312.345l-5.443-13.145a2.021 2.021 0 00-2.61-1.069L1.289 23.6a2.006 2.006 0 00-1.083 2.613l7.382 17.808A7.995 7.995 0 008 60h44a8 8 0 10-.232-16zm-1.019-25.884l4.192-2.616-1.484 3.584a1 1 0 001.848.766l1.484-3.584 1.111 4.813a19.78 19.78 0 00-2.9 4.787 4.113 4.113 0 01-5.59-2.312 19.754 19.754 0 001.339-5.438zm-2.3 7.851a6.091 6.091 0 002.493 1.815 6.345 6.345 0 002.447.516 5.3 5.3 0 00.606-.037l-3.191 7.7a13.572 13.572 0 00-4.294-5.309l1.939-4.685zm-13.7-7.142l5.024.307c.031.934.02 1.9-.011 2.881a21.02 21.02 0 01-5.01-.242c-.126-.018-.249-.032-.374-.049.1-.942.222-1.896.369-2.897h.002zm-.477-8.053c2.655-2.929 4.031-5.182 4.351-7.3a13.374 13.374 0 013.609 7.168 8.96 8.96 0 01-2.024 6.512c-1.975-.12-3.929-.24-5.861-.36a4.171 4.171 0 01-.077-6.02h.002zm-.076 12.943l.29.038c1.289.2 2.59.31 3.893.331.414 0 .85-.033 1.287-.067a62.884 62.884 0 01-.429 4.02c-.247-.013-.489-.037-.737-.037-1.51.003-3.008.26-4.432.763a48.264 48.264 0 01.126-5.048h.002zm-7.735 11.694L23.6 23.222a1 1 0 00-1.947.456l2.571 10.969a11.326 11.326 0 00-2.18-.543l-4.389-18.73a4.74 4.74 0 001.958.426c.063 0 .13-.009.194-.012l.707 3.019a1 1 0 101.947-.456l-.708-3.021A4.736 4.736 0 0023.5 14l4.462 19.079a13.415 13.415 0 00-1.501 2.33zm-6.11-21.7a3.32 3.32 0 01-3.339-1.337l.127-3.522c.348.065.701.098 1.055.1.342.001.683-.036 1.016-.113a5.094 5.094 0 001.854-.922l1.684 3.108a3.317 3.317 0 01-2.397 2.688v-.002zM17.612 2.027a.312.312 0 01.344.154L20.1 6.146a3.42 3.42 0 01-1.35.75 3.4 3.4 0 01-1.541-.073l.163-4.506a.31.31 0 01.24-.29zM10.375 22l.764 1.846-3.7 1.532a1 1 0 00.768 1.846l3.7-1.533.765 1.848-1.851.767a1 1 0 10.766 1.848l1.851-.767.765 1.848L10.5 32.77a1 1 0 10.766 1.848l3.7-1.532.809 1.953A11.609 11.609 0 009.3 42.92L2.052 25.444 10.375 22zM52 58H8a6 6 0 111.711-11.752A1 1 0 0011 45.309 9.5 9.5 0 0126.2 37.9a1 1 0 001.533-.45A11.5 11.5 0 0150 41.5a11.394 11.394 0 01-.505 3.374 1 1 0 001.17 1.272A6.246 6.246 0 0152 46a6 6 0 110 12z"/><path d="M38.685 15.7a1 1 0 00.8-.395 7.5 7.5 0 001.33-5.888 1 1 0 10-1.932.515 5.555 5.555 0 01-.992 4.166 1 1 0 00.8 1.6l-.006.002zM37.37 46a4.916 4.916 0 00-2.145.5 6 6 0 00-10.365 5.89 1 1 0 001.84-.784A4.074 4.074 0 0126.37 50a4 4 0 014-4 3.96 3.96 0 013.615 2.3c.022.033.045.064.07.094a.956.956 0 00.053.1c.018.022.044.032.064.053a.954.954 0 00.155.13c.05.038.104.072.16.1a.99.99 0 00.18.056.919.919 0 00.188.029 1.24 1.24 0 00.382-.064.755.755 0 00.079-.019.9.9 0 00.093-.069 1.04 1.04 0 00.105-.054A2.949 2.949 0 0137.37 48a3 3 0 012.72 1.745 1 1 0 001.82-.83A5 5 0 0037.37 46zm-19.686-6.949C17.533 39.1 14 40.322 14 44a1 1 0 002 0 3.438 3.438 0 012.322-3.053 1.002 1.002 0 00-.638-1.9v.004zm14.073-1.081a1 1 0 001.212-.727A4.265 4.265 0 0137.005 34 1 1 0 0037 32a6.229 6.229 0 00-5.97 4.757 1 1 0 00.727 1.213z"/></symbol><symbol viewBox="0 0 569 569.549" id="customer-support" xmlns="http://www.w3.org/2000/svg"><path d="M1.527 52.246l37.985 66.469a9.488 9.488 0 005.933 4.5l35.438 8.86 121.543 121.542 13.43-13.426L92.41 116.75a9.47 9.47 0 00-4.406-2.5l-34.05-8.543-32.34-56.625L49.34 21.355l56.648 32.372 8.547 34.05a9.47 9.47 0 002.496 4.414l123.446 123.446 13.425-13.43L132.36 80.664l-8.86-35.418a9.511 9.511 0 00-4.5-5.945L52.527 1.32a9.496 9.496 0 00-11.394 1.527L3.153 40.832a9.495 9.495 0 00-1.626 11.414zm394.786 134.899L187.41 396.05l-13.43-13.43 208.907-208.9zM150.848 403.441a9.493 9.493 0 00-8.141-4.605H85.734a9.486 9.486 0 00-8.136 4.605l-28.489 47.477a9.495 9.495 0 000 9.781l28.489 47.477a9.495 9.495 0 008.136 4.605h56.973a9.501 9.501 0 008.14-4.605l28.485-47.477a9.495 9.495 0 000-9.781zm-13.512 90.348H91.109L68.32 455.81l22.79-37.985h46.226l22.789 37.985zm0 0"/><path d="M456.063 227.914c62.714.211 113.73-50.46 113.94-113.176a113.589 113.589 0 00-3.487-28.308c-1.266-5.09-6.418-8.188-11.508-6.922a9.522 9.522 0 00-4.414 2.496l-59.11 59.07-46.898-15.629-15.64-46.886 59.109-59.121a9.495 9.495 0 00-4.453-15.934c-60.82-15.402-122.606 21.414-138.008 82.23a113.327 113.327 0 00-3.477 28.23c.024 7.477.793 14.93 2.309 22.25L136.469 344.169a112.023 112.023 0 00-22.246-2.309C51.289 341.86.273 392.875.273 455.81c0 62.93 51.016 113.945 113.95 113.945 62.93 0 113.945-51.016 113.945-113.945a111.742 111.742 0 00-2.309-22.25l49.786-49.786 21.773 21.774a9.499 9.499 0 0013.43 0l4.746-4.75c4.164-4.137 10.894-4.137 15.058 0 4.16 4.148 4.168 10.883.02 15.043l-.02.02-4.746 4.745c-3.707 3.707-3.707 9.72 0 13.426L439.18 547.305c29.793 30.066 78.316 30.285 108.382.492 30.063-29.793 30.282-78.32.489-108.383-.16-.164-.324-.328-.489-.492L434.29 325.652c-3.707-3.707-9.719-3.707-13.426 0l-4.746 4.746c-4.168 4.141-10.894 4.141-15.062 0-4.157-4.148-4.168-10.882-.02-15.039.008-.007.016-.011.02-.02l4.75-4.75c3.707-3.706 3.707-9.718 0-13.425l-21.774-21.773 49.785-49.786a111.733 111.733 0 0022.247 2.31zm37.308 322.852a57.7 57.7 0 01-20.195-3.684l74.16-74.164c11.191 29.77-3.867 62.973-33.637 74.164a57.6 57.6 0 01-20.328 3.684zM385.797 303.973c-10.516 12.543-8.867 31.238 3.676 41.75 11.023 9.238 27.09 9.23 38.101-.028l106.563 106.657c1.156 1.16 2.238 2.382 3.285 3.625l-81.188 81.187a55.28 55.28 0 01-3.629-3.285L345.961 427.227c10.516-12.543 8.867-31.239-3.676-41.75-11.023-9.243-27.094-9.23-38.105.023l-15.192-15.191 81.614-81.493zm38.344-95.504L208.73 423.836a9.51 9.51 0 00-2.508 9.023c13.027 51.16-17.887 103.196-69.051 116.22-51.16 13.026-103.195-17.888-116.223-69.052-13.023-51.16 17.89-103.195 69.055-116.222a95.649 95.649 0 0147.168 0 9.58 9.58 0 009.023-2.504l215.36-215.371a9.49 9.49 0 002.496-9.02c-12.938-50.562 17.562-102.039 68.125-114.98a94.55 94.55 0 0129.281-2.766l-50.09 50.11a9.487 9.487 0 00-2.297 9.71l18.989 56.977a9.504 9.504 0 006.011 6l56.977 18.992a9.496 9.496 0 009.71-2.289l50.09-50.09a86.32 86.32 0 01.173 5.39c.265 52.177-41.813 94.688-93.989 94.958a94.602 94.602 0 01-23.918-2.953 9.504 9.504 0 00-9.023 2.496h.05zm0 0"/><path d="M491.273 477.578l-13.43 13.43-94.952-94.953 13.425-13.43zm0 0"/></symbol><symbol viewBox="0 0 511.991 511.991" id="email" xmlns="http://www.w3.org/2000/svg"><path d="M511.991 196.243c0-.179-.094-.333-.102-.503a8.146 8.146 0 00-.35-1.741 8.824 8.824 0 00-.486-1.476 8.236 8.236 0 00-.853-1.28 8.38 8.38 0 00-1.161-1.348c-.137-.12-.196-.282-.341-.393l-82.039-63.735V59.71c0-14.138-11.462-25.6-25.6-25.6h-92.476L271.556 5.361a25.319 25.319 0 00-31.121 0L203.401 34.11h-92.476c-14.138 0-25.6 11.461-25.6 25.6v66.057L3.294 189.502c-.145.111-.205.273-.341.393a8.38 8.38 0 00-1.161 1.348c-.324.399-.61.828-.853 1.28-.207.476-.37.97-.486 1.476a8.087 8.087 0 00-.35 1.707c0 .171-.102.324-.102.503v290.167a25.294 25.294 0 001.425 8.064 8.456 8.456 0 009.387 12.8 25.415 25.415 0 0014.78 4.736h460.8a25.427 25.427 0 0014.822-4.804 8.378 8.378 0 002.244.367 8.456 8.456 0 007.117-13.098 25.318 25.318 0 001.417-8.064V196.243zM250.871 18.827a8.182 8.182 0 0110.18 0l19.686 15.283h-49.493l19.627-15.283zM27.708 494.91l223.164-173.346a8.209 8.209 0 0110.172 0L484.275 494.91H27.708zm467.217-13.329L271.539 308.09a25.309 25.309 0 00-31.095 0L17.058 481.581V209.239l139.836 108.587a8.536 8.536 0 0011.977-1.515 8.536 8.536 0 00-1.515-11.977L25.293 194.016l60.032-46.643v65.937a8.533 8.533 0 0017.066 0V59.71a8.533 8.533 0 018.533-8.533h290.133a8.533 8.533 0 018.533 8.533v153.6a8.533 8.533 0 0017.066 0v-65.937l60.032 46.643-142.317 110.515a8.536 8.536 0 0010.471 13.483L494.925 209.24v272.341z"/><path d="M170.658 110.91h170.667c4.713 0 8.533-3.82 8.533-8.533s-3.82-8.533-8.533-8.533H170.658c-4.713 0-8.533 3.82-8.533 8.533s3.82 8.533 8.533 8.533zm179.2 42.667a8.533 8.533 0 00-8.533-8.533H170.658a8.533 8.533 0 000 17.066h170.667a8.533 8.533 0 008.533-8.533zm0 51.2a8.533 8.533 0 00-8.533-8.533h-76.8c-4.713 0-8.533 3.82-8.533 8.533s3.82 8.533 8.533 8.533h76.8a8.533 8.533 0 008.533-8.533z"/></symbol><symbol viewBox="0 0 512 512" id="gmail" xmlns="http://www.w3.org/2000/svg"><g fill="#f2f2f2"><path d="M484.973 122.808l-32.685 328.209H59.712L33.379 129.16 256 253.802z"/><path d="M473.886 60.983L256 265.659 38.114 60.983H256z"/></g><path d="M59.712 155.493v295.524H24.139C10.812 451.017 0 440.206 0 426.878V111.967l39 1.063 20.712 42.463z" fill="#f14336"/><path d="M512 111.967v314.912c0 13.327-10.812 24.139-24.152 24.139h-35.56V155.493l19.692-46.525 40.02 2.999z" fill="#d32e2a"/><path d="M512 85.122v26.845l-59.712 43.526L256 298.561 59.712 155.493 0 111.967V85.122c0-13.327 10.812-24.139 24.139-24.139h13.975L256 219.792 473.886 60.983h13.962c13.34 0 24.152 10.811 24.152 24.139z" fill="#f14336"/><path fill="#d32e2a" d="M59.712 155.493L0 146.235v-34.268z"/></symbol><symbol viewBox="0 0 512 512" id="html" xmlns="http://www.w3.org/2000/svg"><path d="M32 0l40.8 460.8L256 512l183.136-51.168L480 0H32zm359.52 150.688H176.768l5.12 57.888H386.4l-15.392 173.568L256 414.24l-.064.032-114.944-32.128-8.064-90.784h56.32l4.16 47.104 62.496 17.024.096-.064 62.56-17.024 6.528-73.312H130.624l-15.168-170.88h281.056l-4.992 56.48z"/></symbol><symbol viewBox="0 0 512.002 512.002" id="key" xmlns="http://www.w3.org/2000/svg"><circle cx="364" cy="140.062" r="32"/><path d="M506.478 165.937c-10.68-27.194-30.264-66.431-62.915-98.927-32.535-32.384-71.356-51.408-98.194-61.666-29.464-11.261-62.945-4.163-85.295 18.082l-78.538 78.17c-23.281 23.171-29.991 58.825-16.698 88.72a369.522 369.522 0 0013.395 27.103L5.858 389.793A20 20 0 000 403.936v88c0 11.046 8.954 20 20 20h88c11.046 0 20-8.954 20-20v-36l36-.001c11.046 0 20-8.954 20-20v-35.999h36c11.046 0 20-8.954 20-20s-8.954-20-20-20h-56c-11.046 0-20 8.954-20 20v35.999l-36 .001c-11.046 0-20 8.954-20 20v36H40V412.22l177.355-177.354a20 20 0 002.958-24.517c-6.931-11.424-13.298-23.632-18.923-36.285-6.599-14.841-3.237-32.57 8.366-44.119l78.537-78.169c11.213-11.159 28.011-14.718 42.798-9.068 23.222 8.876 56.69 25.214 84.256 52.652 27.735 27.604 44.62 61.567 53.9 85.197a39.716 39.716 0 01-8.965 42.687l-79.486 79.114c-11.575 11.519-28.851 14.887-44.016 8.58-12.507-5.202-24.62-11.382-36-18.367-9.413-5.778-21.729-2.83-27.507 6.584-5.778 9.414-2.831 21.73 6.583 27.508 13.152 8.072 27.136 15.207 41.562 21.207 30.142 12.539 64.525 5.8 87.595-17.161l79.486-79.113c22.545-22.439 29.602-56.062 17.979-85.659z"/></symbol><symbol viewBox="0 0 512 512" id="like" xmlns="http://www.w3.org/2000/svg"><path d="M346 0c-5.522 0-10 4.478-10 10v46c0 5.522 4.478 10 10 10s10-4.478 10-10V10c0-5.522-4.478-10-10-10zM116 312c-5.52 0-10 4.48-10 10s4.48 10 10 10 10-4.48 10-10-4.48-10-10-10z"/><path d="M486 292c0-22.056-17.944-40-40-40h-74.652c11.557-29.603 16.235-64.447 15.333-95.464-.172-5.919-.399-9.342-.706-11.497C385.458 123.432 367.716 106 346 106c-22.056 0-40 17.944-40 40v10c0 63.246-81.214 98.781-142.504 114.019C158.862 259.425 148.284 252 136 252H36c-5.522 0-10 4.478-10 10v240c0 5.522 4.478 10 10 10h100c12.202 0 22.719-7.327 27.401-17.809a3274.4 3274.4 0 0114.135 3.668C212.451 506.978 231.684 512 278.46 512H386c22.056 0 40-17.944 40-40a39.764 39.764 0 00-6.77-22.238C434.678 444.359 446 429.599 446 412c0-8.194-2.436-15.869-6.696-22.262C454.684 384.326 466 369.6 466 352a39.764 39.764 0 00-6.77-22.238C474.678 324.359 486 309.599 486 292zM146 482c0 5.514-4.486 10-10 10H46V272h90c5.514 0 10 4.486 10 10v200zm300-170h-50c-5.522 0-10 4.478-10 10s4.478 10 10 10h30c11.028 0 20 8.972 20 20 0 11.046-8.954 20-20 20h-50c-5.522 0-10 4.478-10 10s4.478 10 10 10h30c10.897 0 20 8.705 20 20 0 11.046-8.954 20-20 20h-50c-5.522 0-10 4.478-10 10s4.478 10 10 10h30c11.028 0 20 8.972 20 20s-8.972 20-20 20H278.46c-44.207 0-61.473-4.509-95.87-13.492a2882.872 2882.872 0 00-16.59-4.295V290.025C238.368 272.787 326 230.711 326 156v-10c0-11.028 8.972-20 20-20 11.008 0 19.979 8.958 20 19.969V146c0 4.346 5.424 57.683-16.326 106H316c-5.522 0-10 4.478-10 10s4.478 10 10 10h130c11.028 0 20 8.972 20 20 0 11.046-8.954 20-20 20z"/><path d="M116 352c-5.522 0-10 4.478-10 10v80c0 5.522 4.478 10 10 10s10-4.478 10-10v-80c0-5.522-4.478-10-10-10zm150-226h-40c-5.522 0-10 4.478-10 10s4.478 10 10 10h40c5.522 0 10-4.478 10-10s-4.478-10-10-10zm200 0h-40c-5.522 0-10 4.478-10 10s4.478 10 10 10h40c5.522 0 10-4.478 10-10s-4.478-10-10-10zm-28.079-81.921c-3.906-3.904-10.236-3.904-14.143 0l-28.279 28.279c-3.905 3.905-3.905 10.237 0 14.143 3.907 3.905 10.236 3.904 14.143 0l28.279-28.279c3.905-3.905 3.905-10.237 0-14.143zm-141.42 28.279l-28.279-28.279c-3.906-3.904-10.236-3.904-14.143 0-3.905 3.905-3.905 10.237 0 14.143l28.279 28.279c3.908 3.905 10.237 3.904 14.143 0 3.905-3.905 3.905-10.237 0-14.143z"/></symbol><symbol viewBox="0 0 504 504" id="mastercard" xmlns="http://www.w3.org/2000/svg"><path d="M504 252c0 83.2-67.2 151.2-151.2 151.2-83.2 0-151.2-68-151.2-151.2 0-83.2 67.2-151.2 150.4-151.2 84.8 0 152 68 152 151.2z" fill="#ffb600"/><path d="M352.8 100.8c83.2 0 151.2 68 151.2 151.2 0 83.2-67.2 151.2-151.2 151.2-83.2 0-151.2-68-151.2-151.2" fill="#f7981d"/><path d="M352.8 100.8c83.2 0 151.2 68 151.2 151.2 0 83.2-67.2 151.2-151.2 151.2" fill="#ff8500"/><path d="M149.6 100.8C67.2 101.6 0 168.8 0 252s67.2 151.2 151.2 151.2c39.2 0 74.4-15.2 101.6-39.2 5.6-4.8 10.4-10.4 15.2-16h-31.2c-4-4.8-8-10.4-11.2-15.2h53.6c3.2-4.8 6.4-10.4 8.8-16h-71.2c-2.4-4.8-4.8-10.4-6.4-16h83.2c4.8-15.2 8-31.2 8-48 0-11.2-1.6-21.6-3.2-32h-92.8c.8-5.6 2.4-10.4 4-16h83.2c-1.6-5.6-4-11.2-6.4-16H216c2.4-5.6 5.6-10.4 8.8-16h53.6c-3.2-5.6-7.2-11.2-12-16h-29.6c4.8-5.6 9.6-10.4 15.2-15.2-26.4-24.8-62.4-39.2-101.6-39.2 0-1.6 0-1.6-.8-1.6z" fill="#ff5050"/><path d="M0 252c0 83.2 67.2 151.2 151.2 151.2 39.2 0 74.4-15.2 101.6-39.2 5.6-4.8 10.4-10.4 15.2-16h-31.2c-4-4.8-8-10.4-11.2-15.2h53.6c3.2-4.8 6.4-10.4 8.8-16h-71.2c-2.4-4.8-4.8-10.4-6.4-16h83.2c4.8-15.2 8-31.2 8-48 0-11.2-1.6-21.6-3.2-32h-92.8c.8-5.6 2.4-10.4 4-16h83.2c-1.6-5.6-4-11.2-6.4-16H216c2.4-5.6 5.6-10.4 8.8-16h53.6c-3.2-5.6-7.2-11.2-12-16h-29.6c4.8-5.6 9.6-10.4 15.2-15.2-26.4-24.8-62.4-39.2-101.6-39.2h-.8" fill="#e52836"/><path d="M151.2 403.2c39.2 0 74.4-15.2 101.6-39.2 5.6-4.8 10.4-10.4 15.2-16h-31.2c-4-4.8-8-10.4-11.2-15.2h53.6c3.2-4.8 6.4-10.4 8.8-16h-71.2c-2.4-4.8-4.8-10.4-6.4-16h83.2c4.8-15.2 8-31.2 8-48 0-11.2-1.6-21.6-3.2-32h-92.8c.8-5.6 2.4-10.4 4-16h83.2c-1.6-5.6-4-11.2-6.4-16H216c2.4-5.6 5.6-10.4 8.8-16h53.6c-3.2-5.6-7.2-11.2-12-16h-29.6c4.8-5.6 9.6-10.4 15.2-15.2-26.4-24.8-62.4-39.2-101.6-39.2h-.8" fill="#cb2026"/><path d="M204.8 290.4l2.4-13.6c-.8 0-2.4.8-4 .8-5.6 0-6.4-3.2-5.6-4.8l4.8-28h8.8l2.4-15.2h-8l1.6-9.6h-16s-9.6 52.8-9.6 59.2c0 9.6 5.6 13.6 12.8 13.6 4.8 0 8.8-1.6 10.4-2.4zm5.6-25.6c0 22.4 15.2 28 28 28 12 0 16.8-2.4 16.8-2.4l3.2-15.2s-8.8 4-16.8 4c-17.6 0-14.4-12.8-14.4-12.8H260s2.4-10.4 2.4-14.4c0-10.4-5.6-23.2-23.2-23.2-16.8-1.6-28.8 16-28.8 36zm28-23.2c8.8 0 7.2 10.4 7.2 11.2H228c0-.8 1.6-11.2 10.4-11.2zM340 290.4l3.2-17.6s-8 4-13.6 4c-11.2 0-16-8.8-16-18.4 0-19.2 9.6-29.6 20.8-29.6 8 0 14.4 4.8 14.4 4.8l2.4-16.8s-9.6-4-18.4-4c-18.4 0-36.8 16-36.8 46.4 0 20 9.6 33.6 28.8 33.6 6.4 0 15.2-2.4 15.2-2.4zm-223.2-63.2c-11.2 0-19.2 3.2-19.2 3.2L95.2 244s7.2-3.2 17.6-3.2c5.6 0 10.4.8 10.4 5.6 0 3.2-.8 4-.8 4h-7.2c-13.6 0-28.8 5.6-28.8 24 0 14.4 9.6 17.6 15.2 17.6 11.2 0 16-7.2 16.8-7.2l-.8 6.4H132l6.4-44c0-19.2-16-20-21.6-20zm3.2 36c0 2.4-1.6 15.2-11.2 15.2-4.8 0-6.4-4-6.4-6.4 0-4 2.4-9.6 14.4-9.6 2.4.8 3.2.8 3.2.8zm33.6 28.8c4 0 24 .8 24-20.8 0-20-19.2-16-19.2-24 0-4 3.2-5.6 8.8-5.6 2.4 0 11.2.8 11.2.8l2.4-14.4s-5.6-1.6-15.2-1.6c-12 0-24 4.8-24 20.8 0 18.4 20 16.8 20 24 0 4.8-5.6 5.6-9.6 5.6-7.2 0-14.4-2.4-14.4-2.4l-2.4 14.4c.8 1.6 4.8 3.2 18.4 3.2zm319.2-77.6l-3.2 21.6s-6.4-8-15.2-8c-14.4 0-27.2 17.6-27.2 38.4 0 12.8 6.4 26.4 20 26.4 9.6 0 15.2-6.4 15.2-6.4l-.8 5.6h16l12-76.8-16.8-.8zm-7.2 42.4c0 8.8-4 20-12.8 20-5.6 0-8.8-4.8-8.8-12.8 0-12.8 5.6-20.8 12.8-20.8 5.6 0 8.8 4 8.8 13.6zm-436 34.4l9.6-57.6 1.6 57.6H52l20.8-57.6-8.8 57.6h16.8l12.8-76.8H67.2l-16 47.2-.8-47.2H27.2l-12.8 76.8h15.2zm248 0c4.8-26.4 5.6-48 16.8-44 1.6-10.4 4-14.4 5.6-18.4h-3.2c-7.2 0-12.8 9.6-12.8 9.6l1.6-8.8h-15.2L260 292h17.6v-.8zm99.2-64c-11.2 0-19.2 3.2-19.2 3.2l-2.4 13.6s7.2-3.2 17.6-3.2c5.6 0 10.4.8 10.4 5.6 0 3.2-.8 4-.8 4h-7.2c-13.6 0-28.8 5.6-28.8 24 0 14.4 9.6 17.6 15.2 17.6 11.2 0 16-7.2 16.8-7.2l-.8 6.4H392l6.4-44c.8-19.2-16-20-21.6-20zm4 36c0 2.4-1.6 15.2-11.2 15.2-4.8 0-6.4-4-6.4-6.4 0-4 2.4-9.6 14.4-9.6 2.4.8 2.4.8 3.2.8zm31.2 28c4.8-26.4 5.6-48 16.8-44 1.6-10.4 4-14.4 5.6-18.4h-3.2c-7.2 0-12.8 9.6-12.8 9.6l1.6-8.8h-15.2L394.4 292H412v-.8z" fill="#fff"/><path d="M180 279.2c0 9.6 5.6 13.6 12.8 13.6 5.6 0 10.4-1.6 12-2.4l2.4-13.6c-.8 0-2.4.8-4 .8-5.6 0-6.4-3.2-5.6-4.8l4.8-28h8.8l2.4-15.2h-8l1.6-9.6m11.2 44.8c0 22.4 7.2 28 20 28 12 0 16.8-2.4 16.8-2.4l3.2-15.2s-8.8 4-16.8 4c-17.6 0-14.4-12.8-14.4-12.8H260s2.4-10.4 2.4-14.4c0-10.4-5.6-23.2-23.2-23.2-16.8-1.6-20.8 16-20.8 36zm20-23.2c8.8 0 10.4 10.4 10.4 11.2H228c0-.8 1.6-11.2 10.4-11.2zM340 290.4l3.2-17.6s-8 4-13.6 4c-11.2 0-16-8.8-16-18.4 0-19.2 9.6-29.6 20.8-29.6 8 0 14.4 4.8 14.4 4.8l2.4-16.8s-9.6-4-18.4-4c-18.4 0-28.8 16-28.8 46.4 0 20 1.6 33.6 20.8 33.6 6.4 0 15.2-2.4 15.2-2.4zM95.2 244.8s7.2-3.2 17.6-3.2c5.6 0 10.4.8 10.4 5.6 0 3.2-.8 4-.8 4h-7.2c-13.6 0-28.8 5.6-28.8 24 0 14.4 9.6 17.6 15.2 17.6 11.2 0 16-7.2 16.8-7.2l-.8 6.4H132l6.4-44c0-18.4-16-19.2-22.4-19.2m12 34.4c0 2.4-9.6 15.2-19.2 15.2-4.8 0-6.4-4-6.4-6.4 0-4 2.4-9.6 14.4-9.6 2.4.8 11.2.8 11.2.8zm8 27.2s4.8 1.6 18.4 1.6c4 0 24 .8 24-20.8 0-20-19.2-16-19.2-24 0-4 3.2-5.6 8.8-5.6 2.4 0 11.2.8 11.2.8l2.4-14.4s-5.6-1.6-15.2-1.6c-12 0-16 4.8-16 20.8 0 18.4 12 16.8 12 24 0 4.8-5.6 5.6-9.6 5.6M469.6 236s-6.4-8-15.2-8c-14.4 0-19.2 17.6-19.2 38.4 0 12.8-1.6 26.4 12 26.4 9.6 0 15.2-6.4 15.2-6.4l-.8 5.6h16l12-76.8m-20.8 41.6c0 8.8-7.2 20-16 20-5.6 0-8.8-4.8-8.8-12.8 0-12.8 5.6-20.8 12.8-20.8 5.6 0 12 4 12 13.6zM29.6 291.2l9.6-57.6 1.6 57.6H52l20.8-57.6-8.8 57.6h16.8l12.8-76.8h-20l-22.4 47.2-.8-47.2h-8.8l-27.2 76.8h15.2zm231.2 0h16.8c4.8-26.4 5.6-48 16.8-44 1.6-10.4 4-14.4 5.6-18.4h-3.2c-7.2 0-12.8 9.6-12.8 9.6l1.6-8.8m69.6 15.2s7.2-3.2 17.6-3.2c5.6 0 10.4.8 10.4 5.6 0 3.2-.8 4-.8 4h-7.2c-13.6 0-28.8 5.6-28.8 24 0 14.4 9.6 17.6 15.2 17.6 11.2 0 16-7.2 16.8-7.2l-.8 6.4H392l6.4-44c0-18.4-16-19.2-22.4-19.2m12 34.4c0 2.4-9.6 15.2-19.2 15.2-4.8 0-6.4-4-6.4-6.4 0-4 2.4-9.6 14.4-9.6 3.2.8 11.2.8 11.2.8zm7.2 28H412c4.8-26.4 5.6-48 16.8-44 1.6-10.4 4-14.4 5.6-18.4h-3.2c-7.2 0-12.8 9.6-12.8 9.6l1.6-8.8" fill="#dce5e5"/></symbol><symbol viewBox="0 0 504 504" id="paypal" xmlns="http://www.w3.org/2000/svg"><path d="M389.6 221.2h-27.2c-1.6 0-3.2 1.6-4 3.2l-11.2 70.4c0 1.6.8 2.4 2.4 2.4H364c1.6 0 2.4-.8 2.4-2.4l3.2-20c0-1.6 1.6-3.2 4-3.2h8.8c18.4 0 28.8-8.8 31.2-26.4 1.6-7.2 0-13.6-3.2-17.6-4.8-4-12-6.4-20.8-6.4m3.2 26.4c-1.6 9.6-8.8 9.6-16 9.6H372l3.2-18.4c0-.8.8-1.6 2.4-1.6h1.6c4.8 0 9.6 0 12 3.2 1.6.8 1.6 3.2 1.6 7.2" fill="#139ad6"/><path d="M193.6 221.2h-27.2c-1.6 0-3.2 1.6-4 3.2l-11.2 70.4c0 1.6.8 2.4 2.4 2.4h12.8c1.6 0 3.2-1.6 4-3.2l3.2-19.2c0-1.6 1.6-3.2 4-3.2h8.8c18.4 0 28.8-8.8 31.2-26.4 1.6-7.2 0-13.6-3.2-17.6-4.8-4-11.2-6.4-20.8-6.4m3.2 26.4c-1.6 9.6-8.8 9.6-16 9.6h-4l3.2-18.4c0-.8.8-1.6 2.4-1.6h1.6c4.8 0 9.6 0 12 3.2.8.8 1.6 3.2.8 7.2m79.2-.8h-12.8c-.8 0-2.4.8-2.4 1.6l-.8 4-.8-1.6c-3.2-4-8.8-5.6-15.2-5.6-14.4 0-27.2 11.2-29.6 26.4-1.6 8 .8 15.2 4.8 20s9.6 6.4 16.8 6.4c12 0 18.4-7.2 18.4-7.2l-.8 4c0 1.6.8 2.4 2.4 2.4h12c1.6 0 3.2-1.6 4-3.2l7.2-44.8c-.8-.8-2.4-2.4-3.2-2.4m-18.4 25.6c-1.6 7.2-7.2 12.8-15.2 12.8-4 0-7.2-1.6-8.8-3.2-1.6-2.4-2.4-5.6-2.4-9.6.8-7.2 7.2-12.8 14.4-12.8 4 0 6.4 1.6 8.8 3.2 2.4 2.4 3.2 6.4 3.2 9.6" fill="#263b80"/><path d="M471.2 246.8h-12.8c-.8 0-2.4.8-2.4 1.6l-.8 4-.8-1.6c-3.2-4-8.8-5.6-15.2-5.6-14.4 0-27.2 11.2-29.6 26.4-1.6 8 .8 15.2 4.8 20s9.6 6.4 16.8 6.4c12 0 18.4-7.2 18.4-7.2l-.8 4c0 1.6.8 2.4 2.4 2.4h12c1.6 0 3.2-1.6 4-3.2l7.2-44.8c-.8-.8-1.6-2.4-3.2-2.4m-18.4 25.6c-1.6 7.2-7.2 12.8-15.2 12.8-4 0-7.2-1.6-8.8-3.2-1.6-2.4-2.4-5.6-2.4-9.6.8-7.2 7.2-12.8 14.4-12.8 4 0 6.4 1.6 8.8 3.2 3.2 2.4 4 6.4 3.2 9.6" fill="#139ad6"/><path d="M345.6 246.8H332c-1.6 0-2.4.8-3.2 1.6l-17.6 27.2-8-25.6c-.8-1.6-1.6-2.4-4-2.4h-12.8c-1.6 0-2.4 1.6-2.4 3.2l14.4 42.4-13.6 19.2c-.8 1.6 0 4 1.6 4h12.8c1.6 0 2.4-.8 3.2-1.6l44-63.2c2.4-2.4.8-4.8-.8-4.8" fill="#263b80"/><path d="M486.4 223.6l-11.2 72c0 1.6.8 2.4 2.4 2.4h11.2c1.6 0 3.2-1.6 4-3.2l11.2-70.4c0-1.6-.8-2.4-2.4-2.4h-12.8c-.8-.8-1.6 0-2.4 1.6" fill="#139ad6"/><path d="M92 197.2c-5.6-6.4-16-9.6-30.4-9.6h-40c-2.4 0-4.8 2.4-5.6 4.8L0 297.2c0 2.4 1.6 4 3.2 4H28l6.4-39.2v1.6c.8-2.4 3.2-4.8 5.6-4.8h12c23.2 0 40.8-9.6 46.4-36v-2.4c-.8 0-.8 0 0 0 .8-10.4-.8-16.8-6.4-23.2" fill="#263b80"/><path d="M97.6 220.4v2.4c-5.6 27.2-23.2 36-46.4 36h-12c-2.4 0-4.8 2.4-5.6 4.8l-8 48.8c0 1.6.8 3.2 3.2 3.2h20.8c2.4 0 4.8-1.6 4.8-4v-.8l4-24.8v-1.6c0-2.4 2.4-4 4.8-4h3.2c20 0 36-8 40-32 1.6-9.6.8-18.4-4-24-.8-1.6-2.4-3.2-4.8-4" fill="#139ad6"/><path d="M92 218c-.8 0-1.6-.8-2.4-.8s-1.6 0-2.4-.8c-3.2-.8-6.4-.8-10.4-.8H45.6c-.8 0-1.6 0-2.4.8-1.6.8-2.4 2.4-2.4 4L34.4 262v1.6c.8-2.4 3.2-4.8 5.6-4.8h12c23.2 0 40.8-9.6 46.4-36 0-.8 0-1.6.8-2.4-1.6-.8-2.4-1.6-4-1.6-2.4-.8-2.4-.8-3.2-.8" fill="#232c65"/></symbol><symbol viewBox="-6 0 511 512" id="responsive" xmlns="http://www.w3.org/2000/svg"><path d="M355.398 172.852v.003a7.648 7.648 0 001.336 1.934l17.391 18.586a7.537 7.537 0 005.52 2.395 7.557 7.557 0 005.516-12.723l-5.524-5.906h18.308a1.9 1.9 0 011.875 1.875v93.246a7.555 7.555 0 007.555 7.554 7.556 7.556 0 007.559-7.554v-93.246c0-9.368-7.622-16.989-16.989-16.989h-18.308l5.523-5.906a7.552 7.552 0 00-.355-10.68 7.552 7.552 0 00-10.68.356l-17.39 18.582a7.593 7.593 0 00-1.333 1.926 7.562 7.562 0 00-.746 3.285 7.547 7.547 0 00.742 3.262zm-207.55 111.925l-16.364-17.504a7.564 7.564 0 00-10.683-.359 7.564 7.564 0 00-.36 10.684l4.516 4.828H108.68c-.7 0-1.317-.617-1.317-1.32v-87.93a7.557 7.557 0 10-15.113 0v87.93c0 9.062 7.371 16.433 16.434 16.433h16.273l-4.512 4.828a7.552 7.552 0 00.36 10.68 7.526 7.526 0 005.16 2.039 7.532 7.532 0 005.52-2.399l16.363-17.5a7.372 7.372 0 001.351-1.968 7.506 7.506 0 00.727-3.239c0-1.105-.238-2.21-.727-3.234a7.463 7.463 0 00-1.351-1.969zm0 0"/><path d="M466.371 54.184h-126.52V16.492C339.852 7.398 332.454 0 323.36 0H177.168c-9.094 0-16.492 7.398-16.492 16.492v37.692H33.602C15.348 54.184.5 69.66.5 88.688v308.757c0 19.028 14.848 34.504 33.102 34.504H144.64l-6.313 17.7H125.79c-17.187 0-31.172 13.988-31.172 31.175v17.34c0 7.629 6.203 13.836 13.832 13.836h275.106c7.629 0 13.836-6.207 13.836-13.836v-17.34c0-17.187-13.985-31.176-31.172-31.176h-15.145l-6.328-17.699h121.629c18.266 0 33.129-15.476 33.129-34.504V88.687c0-19.023-14.863-34.503-33.133-34.503zM175.79 239.414h148.945v11.012c0 .73-.64 1.375-1.375 1.375H177.168a1.396 1.396 0 01-1.379-1.375zm1.379-224.3H323.36a1.4 1.4 0 011.38 1.378v11.242H175.79V16.492c0-.762.617-1.379 1.379-1.379zM33.602 69.3h127.074v17.875H45.16c-7.562 0-13.484 6.254-13.484 14.242v250.02c0 7.789 6.336 14.125 14.125 14.125H230.5a7.557 7.557 0 100-15.114H46.793V102.29h113.883v47.707a7.556 7.556 0 007.558 7.555 7.555 7.555 0 007.555-7.555V42.848h148.945V224.3H175.79v-42.074a7.557 7.557 0 10-15.113 0v68.199c0 9.09 7.398 16.488 16.492 16.488H323.36c9.094 0 16.493-7.398 16.493-16.488v-148.13l113.359.11V350.45l-186.902.29a7.562 7.562 0 00-7.547 7.57 7.557 7.557 0 007.558 7.546h.012l187.867-.293c7.79 0 14.125-6.335 14.125-14.125v-250.02c0-7.79-6.336-14.129-14.117-14.129l-114.355-.11V69.302h126.52c9.933 0 18.015 8.695 18.015 19.386v293.204H15.613V88.687c0-10.69 8.07-19.386 17.989-19.386zm348.671 411.523v16.063H109.73v-16.063c0-8.855 7.204-16.058 16.06-16.058h240.425c8.855 0 16.058 7.203 16.058 16.058zm-47.25-31.176H154.375l6.313-17.699H328.69zm131.348-32.812H33.601c-9.917 0-17.988-8.7-17.988-19.39v-.442h468.774v.441c0 10.692-8.082 19.39-18.016 19.39zm0 0"/></symbol><symbol viewBox="0 0 512 512" id="resume" xmlns="http://www.w3.org/2000/svg"><g data-name="Resume"><path d="M496 376h-32V192a24.027 24.027 0 00-24-24h-48V72a8 8 0 00-8-8H128a8 8 0 00-8 8v96H72a24.027 24.027 0 00-24 24v184H16a8 8 0 00-8 8v16a40.045 40.045 0 0040 40h416a40.045 40.045 0 0040-40v-16a8 8 0 00-8-8zM392 208h32v144h-32zM136 80h240v272H136zM64 192a8.009 8.009 0 018-8h48v8H80a8 8 0 00-8 8v160a8 8 0 008 8h352a8 8 0 008-8V200a8 8 0 00-8-8h-40v-8h48a8.009 8.009 0 018 8v184H64zm56 16v144H88V208zm172.9 184l-2.666 8h-68.468l-2.666-8zm195.1 8a24.027 24.027 0 01-24 24H48a24.027 24.027 0 01-24-24v-8h178.234l6.177 18.53A8 8 0 00216 416h80a8 8 0 007.589-5.47l6.177-18.53H488z"/><path d="M213.21 215.544a8.1 8.1 0 001.063.922 63.809 63.809 0 0083.4.047 8.048 8.048 0 001.194-1.034 64 64 0 10-85.656.065zm13.476-9.574c0-.212-.019-.427-.019-.637a29.333 29.333 0 0158.666 0c0 .21-.015.425-.019.637a47.852 47.852 0 01-58.628 0zm18.647-56.637A10.667 10.667 0 11256 160a10.679 10.679 0 01-10.667-10.667zM256 120a47.966 47.966 0 0142.651 69.978 45.575 45.575 0 00-21.336-24.64 26.667 26.667 0 10-42.63 0 45.575 45.575 0 00-21.336 24.64A47.966 47.966 0 01256 120zm80 128H176a8 8 0 000 16h160a8 8 0 000-16zm-32 32H176a8 8 0 000 16h128a8 8 0 000-16zM96 400H56a8 8 0 000 16h40a8 8 0 000-16zm32 0h-8a8 8 0 000 16h8a8 8 0 000-16z"/></g></symbol><symbol viewBox="0 0 60 60" id="smartphone" xmlns="http://www.w3.org/2000/svg"><path d="M20 49c-2.206 0-4 1.794-4 4s1.794 4 4 4 4-1.794 4-4-1.794-4-4-4zm0 6c-1.103 0-2-.897-2-2s.897-2 2-2 2 .897 2 2-.897 2-2 2zM17 5h4a1 1 0 100-2h-4a1 1 0 100 2zm7 0h1a1 1 0 100-2h-1a1 1 0 100 2z"/><path d="M56 12H38V4.405A4.41 4.41 0 0033.595 0H8.405A4.41 4.41 0 004 4.405v51.189A4.41 4.41 0 008.405 60h25.189A4.41 4.41 0 0038 55.595V33h18V12zM8.405 2h25.189A2.408 2.408 0 0136 4.405V6H6V4.405A2.408 2.408 0 018.405 2zm25.19 56H8.405A2.408 2.408 0 016 55.595V48h30v7.595A2.408 2.408 0 0133.595 58zM36 46H6V8h30v4H18v21h4v7l9.333-7H36v13zm18-15H30.667L24 36v-5h-4V14h34v17z"/><path d="M25 21h10a1 1 0 100-2H25a1 1 0 100 2zm-1 4a1 1 0 001 1h24a1 1 0 100-2H25a1 1 0 00-1 1z"/></symbol><symbol viewBox="0 0 60 60" id="stopwatch" xmlns="http://www.w3.org/2000/svg"><path d="M31.634 37.989a3.558 3.558 0 002.606-1.459l9.363-12.944a1 1 0 00-1.397-1.397L29.26 31.555c-.844.614-1.375 1.563-1.456 2.604s.296 2.06 1.033 2.797a3.554 3.554 0 002.797 1.033zm-1.836-3.674a1.56 1.56 0 01.637-1.142l7.897-5.713-5.711 7.895a1.565 1.565 0 01-2.371.187 1.564 1.564 0 01-.452-1.227z"/><path d="M54.034 19.564c-.01-.021-.01-.043-.021-.064-.012-.02-.031-.031-.044-.05a27.185 27.185 0 00-3.565-4.809l2.148-2.147 1.414 1.414 4.242-4.243-4.242-4.242-4.243 4.242 1.415 1.415-2.148 2.147a27.154 27.154 0 00-4.809-3.566c-.019-.013-.03-.032-.05-.044-.021-.012-.043-.011-.064-.022a26.81 26.81 0 00-10.273-3.404V5h1.5c1.379 0 2.5-1.121 2.5-2.5S36.672 0 35.293 0h-9c-1.379 0-2.5 1.121-2.5 2.5s1.121 2.5 2.5 2.5h1.5v1.156c-1.08.115-2.158.291-3.224.535a1 1 0 10.447 1.949 25.43 25.43 0 012.78-.477l1.073-.083c.328-.025.63-.043.924-.057V10a1 1 0 102 0V8.03a24.805 24.805 0 0110.456 2.845l-.986 1.707a1 1 0 001.732 1l.983-1.703a25.194 25.194 0 017.772 7.772l-1.703.983a1 1 0 001.002 1.732l1.707-.986a24.82 24.82 0 012.849 10.619H53.63a1 1 0 100 2h1.975a24.82 24.82 0 01-2.849 10.619l-1.707-.986a1 1 0 00-1 1.732l1.703.983a25.194 25.194 0 01-7.772 7.772l-.983-1.703a.998.998 0 00-1.366-.366.999.999 0 00-.366 1.366l.986 1.707a24.805 24.805 0 01-10.456 2.845V56a1 1 0 10-2 0v1.976a25.235 25.235 0 01-4.776-.617.996.996 0 00-1.198.751 1 1 0 00.751 1.198c1.996.46 4.035.692 6.058.692.049 0 .096-.003.145-.004.007 0 .012.004.018.004.008 0 .015-.005.023-.005a26.825 26.825 0 0013.219-3.573c.031-.014.064-.021.094-.039.02-.012.031-.031.05-.044a27.197 27.197 0 009.773-9.761c.019-.027.043-.048.06-.078.012-.021.011-.043.021-.064C56.317 42.476 57.63 37.89 57.63 33s-1.313-9.476-3.596-13.436zm-.069-11.313l1.414 1.414-1.414 1.415-1.415-1.415 1.415-1.414zm-24.172-2.23V3h-3.5c-.275 0-.5-.225-.5-.5s.225-.5.5-.5h9c.275 0 .5.225.5.5s-.225.5-.5.5h-3.5v3.021c-.348-.014-.68-.021-1-.021l-.088.002L30.63 6c-.164 0-.328.011-.492.014-.116.003-.225.002-.345.007zm-8 7.979h-5a1 1 0 100 2h5a1 1 0 100-2zm0 7h-10a1 1 0 100 2h10a1 1 0 100-2zm0 7h-15a1 1 0 100 2h15a1 1 0 100-2zm0 7h-19a1 1 0 100 2h19a1 1 0 100-2zm0 7h-13a1 1 0 100 2h13a1 1 0 100-2zm0 7h-7a1 1 0 100 2h7a1 1 0 100-2z"/></symbol><symbol viewBox="0 0 512 512" id="support" xmlns="http://www.w3.org/2000/svg"><path d="M255.107 65.06c5.562 0 10.071-4.509 10.071-10.071V10.071C265.178 4.509 260.669 0 255.107 0s-10.071 4.509-10.071 10.071v44.918c.001 5.562 4.51 10.071 10.071 10.071zM501.28 345.985l-17.791-17.741c-6.329-6.321-14.764-9.803-23.752-9.803-5.747 0-11.264 1.43-16.153 4.109l-33.526-33.486 1.633-1.631c13.601-13.628 13.596-35.773-.001-49.355a34.57 34.57 0 00-17.531-9.48 35.171 35.171 0 001.389-9.798c0-9.355-3.634-18.127-10.212-24.678a34.575 34.575 0 00-17.531-9.48 35.166 35.166 0 001.389-9.798c0-9.356-3.634-18.127-10.223-24.688a34.735 34.735 0 00-17.516-9.455c3.436-11.847.5-25.176-8.82-34.512-7.758-7.725-18.285-11.045-28.43-9.969L237.77 83.645c-10.132-1.922-22.785-3.193-30.772 4.092-.504.46-1.018.989-1.524 1.578-12.384-4.514-26.828-1.826-36.745 8.08-6.579 6.571-10.203 15.339-10.203 24.689 0 3.368.477 6.657 1.386 9.799a34.52 34.52 0 00-17.5 9.459c-6.592 6.565-10.227 15.323-10.234 24.662a35.112 35.112 0 001.39 9.826 34.596 34.596 0 00-17.522 9.45c-6.592 6.585-10.222 15.358-10.222 24.703 0 7.158 2.137 13.977 6.097 19.737a34.71 34.71 0 00-13.415 8.347c-13.61 13.593-13.615 35.739.009 49.387l1.627 1.62-33.53 33.469c-12.461-5.867-27.814-3.669-38.097 6.601l-17.802 17.752C4.381 353.22.895 361.656.894 370.649c0 8.994 3.487 17.431 9.819 23.756l22.217 22.19c3.935 3.931 10.312 3.927 14.242-.008 3.931-3.935 3.927-10.312-.008-14.242l-22.217-22.19c-2.522-2.519-3.911-5.895-3.911-9.505 0-3.609 1.389-6.984 3.905-9.497L42.744 343.4c4.448-4.443 11.256-5.105 16.426-2.014a10.023 10.023 0 004.161 3.563l102.093 101.943a10.04 10.04 0 002.02 2.922 10.024 10.024 0 002.835 1.984 13.325 13.325 0 013.352 8.885c0 3.61-1.389 6.985-3.911 9.504l-17.785 17.764c-5.255 5.232-13.803 5.231-19.042.016l-22.217-22.219c-3.933-3.933-10.309-3.933-14.242 0s-3.933 10.309 0 14.242l22.233 22.235c6.544 6.517 15.138 9.774 23.736 9.774 8.6 0 17.204-3.262 23.756-9.785l17.796-17.775c6.332-6.325 9.819-14.761 9.819-23.756 0-6.419-1.785-12.549-5.104-17.835l37.736-37.69.121-.123c4.321-4.467 16.354-3.631 27.991-2.823 8.268.575 17.486 1.214 26.492.176l41.324 41.275c-2.677 4.881-4.106 10.391-4.106 16.129 0 8.985 3.487 17.416 9.819 23.741l17.797 17.775c6.328 6.321 14.763 9.803 23.751 9.803 8.987 0 17.422-3.481 23.751-9.803l107.941-107.81c6.332-6.324 9.819-14.76 9.819-23.754-.001-8.993-3.488-17.429-9.826-23.759zm-267.26-242.55l43.687 8.269-26.149 26.139c-4.045-1.944-9.589-5.57-15.671-11.388-8.325-7.964-14.28-17.159-14.822-22.894l-.001-.009-.001-.003a8.798 8.798 0 01-.044-.992c1.317-.32 4.815-.675 13.001.878zm-51.058 8.211c5.102-5.097 13.028-5.685 18.793-1.781 3.267 13.698 14.952 26.113 20.209 31.143 3.896 3.728 16.397 14.905 29.015 17.977a14.685 14.685 0 012.636 8.442c0 3.965-1.525 7.672-4.304 10.448-2.771 2.776-6.484 4.304-10.456 4.304-3.973 0-7.686-1.528-10.47-4.317l-.001-.001-.005-.005-45.418-45.336c-2.769-2.765-4.294-6.472-4.294-10.436.001-3.965 1.526-7.672 4.295-10.438zm-26.316 43.947c2.771-2.775 6.48-4.304 10.446-4.304 3.971 0 7.692 1.532 10.481 4.318l36.572 36.499c5.759 5.768 5.759 15.154.02 20.902-2.786 2.775-6.512 4.303-10.491 4.303s-7.705-1.528-10.479-4.291l-.001-.001-27.745-27.739c-.043-.043-.09-.083-.134-.127l-8.68-8.676c-2.785-2.782-4.318-6.496-4.315-10.458.004-3.949 1.532-7.644 4.326-10.426zm-26.366 43.938c2.773-2.769 6.49-4.294 10.468-4.294 3.945 0 7.63 1.503 10.391 4.224l27.83 27.817c2.775 2.764 4.304 6.467 4.304 10.427 0 3.959-1.529 7.662-4.315 10.437-2.772 2.768-6.485 4.293-10.456 4.293-3.977 0-7.702-1.529-10.478-4.293l-10.089-10.077-.007-.007-17.647-17.626c-2.782-2.779-4.314-6.491-4.314-10.451 0-3.959 1.532-7.672 4.313-10.45zm-17.54 52.786c2.785-2.782 6.507-4.314 10.48-4.314 3.972 0 7.693 1.531 10.477 4.311l10.103 10.091c2.776 2.764 4.304 6.467 4.304 10.427s-1.529 7.662-4.325 10.448c-2.771 2.775-6.484 4.304-10.456 4.304-3.973 0-7.686-1.528-10.477-4.324l-1.265-1.26c-.017-.017-.03-.035-.046-.051l-.058-.052-8.727-8.693c-5.759-5.771-5.764-15.14-.01-20.887zm205.234 114.458c-3.931-3.936-10.308-3.939-14.242-.009l-8.96 8.949c-8.514 8.514-23.941 7.442-38.86 6.407-16.201-1.126-32.954-2.288-43.795 8.842l-37.095 37.05-92.763-92.627 32.828-32.769c5.426 3.326 11.687 5.109 18.238 5.109 9.359 0 18.135-3.628 24.69-10.195 6.599-6.572 10.234-15.343 10.234-24.699 0-.087-.006-.173-.006-.26.087.001.174.006.261.006 9.346 0 18.115-3.617 24.679-10.173 6.599-6.572 10.234-15.344 10.234-24.699 0-.087-.006-.173-.006-.26.088 0 .176.006.265.006 9.343 0 18.117-3.613 24.725-10.194 6.86-6.871 10.253-15.917 10.188-24.944.09.001.18.006.27.006 9.359-.001 18.134-3.628 24.699-10.205 6.579-6.571 10.203-15.339 10.203-24.689 0-6.539-1.778-12.79-5.093-18.205l28.773-28.761a14.775 14.775 0 017.559-4.028c.3-.032.596-.08.889-.138 4.446-.613 9.115.759 12.515 4.145 5.759 5.769 5.759 15.155.021 20.903l-8.763 8.727c-.029.029-.06.055-.089.084L299.48 160.23c-3.936 3.93-3.94 10.307-.009 14.242 3.932 3.936 10.308 3.939 14.242.009l8.798-8.786.006-.006 1.33-1.325c5.775-5.722 15.131-5.71 20.9.051 2.776 2.764 4.305 6.467 4.305 10.427 0 3.959-1.529 7.662-4.327 10.448l-8.813 8.831-.003.004-10.092 10.051c-3.941 3.925-3.954 10.302-.029 14.242 3.925 3.941 10.301 3.953 14.242.029l10.138-10.097c2.771-2.776 6.484-4.304 10.456-4.304 3.973 0 7.687 1.528 10.478 4.324 2.776 2.765 4.304 6.468 4.304 10.428 0 3.959-1.528 7.662-4.32 10.442l-17.57 17.577c-3.932 3.934-3.931 10.31.002 14.242a10.038 10.038 0 007.12 2.948c2.578 0 5.156-.984 7.122-2.951l8.611-8.614c.049-.047.102-.088.151-.137 2.771-2.776 6.484-4.304 10.456-4.304 3.973 0 7.686 1.528 10.467 4.314 5.753 5.747 5.748 15.117 0 20.875l-8.755 8.745-.01.009-.009.01-13.896 13.879c-3.935 3.931-3.939 10.308-.009 14.243a10.042 10.042 0 007.126 2.954c2.575 0 5.151-.982 7.117-2.945l6.797-6.789 32.577 32.539-92.755 92.642-33.234-33.194a39.602 39.602 0 006.615-5.323l8.955-8.944c3.937-3.929 3.941-10.306.01-14.241zm169.078 12.472l-107.941 107.81c-2.525 2.522-5.905 3.911-9.517 3.911s-6.992-1.389-9.518-3.912l-17.797-17.775c-2.522-2.518-3.911-5.888-3.911-9.489 0-3.6 1.389-6.97 3.911-9.489l107.941-107.81c2.526-2.523 5.905-3.912 9.518-3.912 3.612 0 6.992 1.389 9.524 3.918l17.791 17.741c2.522 2.519 3.911 5.893 3.911 9.503-.001 3.611-1.39 6.986-3.912 9.504zM121.378 56.57a10.039 10.039 0 007.114 2.942c2.58 0 5.161-.986 7.128-2.957 3.929-3.937 3.923-10.313-.014-14.242L98.908 5.688c-3.936-3.929-10.313-3.924-14.242.014-3.929 3.937-3.923 10.313.014 14.242zm260.344 2.942c2.575 0 5.151-.982 7.117-2.945l36.67-36.626c3.935-3.93 3.939-10.307.008-14.242-3.93-3.935-10.306-3.939-14.242-.008l-36.67 36.626c-3.935 3.93-3.939 10.307-.008 14.242a10.039 10.039 0 007.125 2.953z"/><path d="M62.819 433.204c-3.899 3.966-3.845 10.343.122 14.242l.029.028a10.005 10.005 0 007.038 2.882c2.607 0 5.214-1.009 7.189-3.018 3.899-3.966 3.83-10.357-.136-14.256-3.965-3.899-10.341-3.844-14.242.122zm279.787-80.937c1.532 0 3.086-.349 4.545-1.084 4.966-2.505 6.961-8.561 4.457-13.527-2.505-4.966-8.562-6.962-13.527-4.457l-.056.028c-4.966 2.505-6.933 8.547-4.429 13.513 1.768 3.508 5.324 5.527 9.01 5.527z"/></symbol><symbol viewBox="0 0 512 512" id="telegram" xmlns="http://www.w3.org/2000/svg"><path d="M385.268 121.919l-210.569 129.69c-11.916 7.356-17.555 21.885-13.716 35.323l22.768 80c1.945 6.821 8.015 11.355 14.999 11.355.389 0 .782-.014 1.176-.043 7.466-.542 13.374-6.103 14.367-13.515l5.92-43.866a25.915 25.915 0 018.001-15.45l173.765-161.524a13.817 13.817 0 001.618-18.545 13.836 13.836 0 00-18.329-3.425zM214.32 290.478a46.364 46.364 0 00-14.323 27.655l-2.871 21.278-16.527-58.072c-1.343-4.704.635-9.791 4.805-12.365l154.258-95.007L214.32 290.478z"/><path d="M503.67 37.382a23.52 23.52 0 00-23.698-4.005L15.08 212.719C5.873 216.27-.047 224.939 0 234.804c.048 9.874 6.055 18.495 15.316 21.965l108.59 40.529 42.359 136.225a23.517 23.517 0 0015.703 15.566 23.49 23.49 0 0021.66-4.31l63.14-51.473a8.642 8.642 0 0110.528-.295l113.883 82.681a23.476 23.476 0 0013.823 4.511 23.6 23.6 0 008.517-1.596c7.486-2.895 12.93-9.312 14.56-17.163l83.429-401.309a23.547 23.547 0 00-7.838-22.753zM491.536 55.99l-83.428 401.308c-.302 1.45-1.346 2.053-1.942 2.284-.6.232-1.785.489-2.997-.393l-113.887-82.685a28.982 28.982 0 00-17.052-5.531 29.013 29.013 0 00-18.347 6.519l-63.154 51.485c-1.124.92-2.291.756-2.885.577-.598-.18-1.665-.69-2.099-2.086L141.9 286.462a10.203 10.203 0 00-6.173-6.527L22.462 237.662c-1.696-.635-2.057-1.958-2.062-2.957-.005-.99.343-2.307 2.023-2.955L487.316 52.409l.008-.003c1.51-.583 2.627.087 3.159.537.534.455 1.384 1.455 1.053 3.047z"/><path d="M427.481 252.142c-5.506-1.196-10.936 2.299-12.131 7.804l-1.55 7.14c-1.195 5.505 2.299 10.936 7.804 12.131a10.25 10.25 0 002.174.234c4.695 0 8.92-3.262 9.958-8.037l1.55-7.14c1.194-5.505-2.301-10.936-7.805-12.132zm-10.2 46.98c-5.512-1.195-10.938 2.299-12.132 7.804L381.69 414.977c-1.195 5.505 2.299 10.936 7.803 12.131.73.158 1.457.234 2.174.234 4.696 0 8.92-3.262 9.958-8.037l23.459-108.052c1.195-5.505-2.299-10.936-7.803-12.131z"/></symbol><symbol viewBox="0 0 24 24" id="telegramm" xmlns="http://www.w3.org/2000/svg"><circle cx="12" cy="12" fill="#039be5" r="12"/><path d="M5.491 11.74l11.57-4.461c.537-.194 1.006.131.832.943l.001-.001-1.97 9.281c-.146.658-.537.818-1.084.508l-3-2.211-1.447 1.394c-.16.16-.295.295-.605.295l.213-3.053 5.56-5.023c.242-.213-.054-.333-.373-.121l-6.871 4.326-2.962-.924c-.643-.204-.657-.643.136-.953z" fill="#fff"/></symbol><symbol viewBox="0 0 64 64" id="tools" xmlns="http://www.w3.org/2000/svg"><path d="M19.223 14.981l33.626 33.625h2.823L20.64 13.564zM9.32 16.393l7.07-7.07 2.828 2.828-7.07 7.07zm26.931 9.964c.017-.02.023-.045.042-.064l4-4a1 1 0 011.414 1.414l-4 4c-.019.019-.044.025-.064.042l2.837 2.837 2.42-2.423a5.061 5.061 0 014.1-1.5 11.011 11.011 0 0012.218-11.977l-6 6a1 1 0 01-.905.273l-7.069-1.419a1 1 0 01-.783-.784l-1.421-7.069a1 1 0 01.273-.905l6-6A11.011 11.011 0 0037.333 17a5.057 5.057 0 01-1.5 4.1l-2.419 2.42zm-8.502 11.287c-.017.019-.023.044-.042.063l-4 4a1 1 0 01-1.414-1.414l4-4c.019-.019.044-.025.063-.042l-2.836-2.837-2.42 2.423a5.047 5.047 0 01-4.1 1.5A11.011 11.011 0 004.782 49.314l6-6a1 1 0 01.9-.273l7.07 1.419a1 1 0 01.783.784l1.421 7.069a1 1 0 01-.274.905l-6 6A11.011 11.011 0 0026.667 47a5.057 5.057 0 011.5-4.1l2.423-2.423zM9.322 4.322a5 5 0 00-3.535 8.536l2.121 2.121 7.071-7.071-2.121-2.121a4.965 4.965 0 00-3.536-1.465zm48.947 50.126l-.961-3.842h-3.654l.469 2.34a1 1 0 01-1.177 1.177l-2.34-.468v3.653l3.843.962a6.926 6.926 0 013.82-3.822zm.495 1.976a4.779 4.779 0 00-2.34 2.34l3.121.781zm-6.897-4.557l-.354-1.768-33.704-33.704-1.414 1.414 33.704 33.705zm-3.261.982L14.981 19.223l-1.417 1.417 35.042 35.032z"/></symbol><symbol viewBox="0 0 349.757 349.756" id="up-arrow" xmlns="http://www.w3.org/2000/svg"><path d="M298.055 147.199c0 2.787-1.267 9.271-13.036 9.271h-54.037v178.856c.072.48.144 1.159.144 1.939 0 3.177-1.207 6.106-3.416 8.269-2.858 2.798-7.224 4.222-12.988 4.222h-83.056c-11.493 0-14.525-8.149-14.525-12.454V160.236H67.606c-13.841 0-15.904-6.594-15.904-10.521 0-6.293 5.996-12.577 7.197-13.775 3.176-4.305 89.036-118.195 101.529-130.718 4.558-4.534 9.131-5.339 12.163-5.209 7.293.3 12.268 5.915 12.808 6.56l104.838 126.674c1.513 1.384 7.818 7.821 7.818 13.952z"/></symbol><symbol viewBox="0 0 504 504" id="visa" xmlns="http://www.w3.org/2000/svg"><path fill="#3c58bf" d="M184.8 324.4l25.6-144h40l-24.8 144z"/><path fill="#293688" d="M184.8 324.4l32.8-144h32.8l-24.8 144z"/><path d="M370.4 182c-8-3.2-20.8-6.4-36.8-6.4-40 0-68.8 20-68.8 48.8 0 21.6 20 32.8 36 40s20.8 12 20.8 18.4c0 9.6-12.8 14.4-24 14.4-16 0-24.8-2.4-38.4-8l-5.6-2.4-5.6 32.8c9.6 4 27.2 8 45.6 8 42.4 0 70.4-20 70.4-50.4 0-16.8-10.4-29.6-34.4-40-14.4-7.2-23.2-11.2-23.2-18.4 0-6.4 7.2-12.8 23.2-12.8 13.6 0 23.2 2.4 30.4 5.6l4 1.6 6.4-31.2z" fill="#3c58bf"/><path d="M370.4 182c-8-3.2-20.8-6.4-36.8-6.4-40 0-61.6 20-61.6 48.8 0 21.6 12.8 32.8 28.8 40s20.8 12 20.8 18.4c0 9.6-12.8 14.4-24 14.4-16 0-24.8-2.4-38.4-8l-5.6-2.4-5.6 32.8c9.6 4 27.2 8 45.6 8 42.4 0 70.4-20 70.4-50.4 0-16.8-10.4-29.6-34.4-40-14.4-7.2-23.2-11.2-23.2-18.4 0-6.4 7.2-12.8 23.2-12.8 13.6 0 23.2 2.4 30.4 5.6l4 1.6 6.4-31.2z" fill="#293688"/><path d="M439.2 180.4c-9.6 0-16.8.8-20.8 10.4l-60 133.6h43.2l8-24h51.2l4.8 24H504l-33.6-144h-31.2zm-18.4 96c2.4-7.2 16-42.4 16-42.4s3.2-8.8 5.6-14.4l2.4 13.6s8 36 9.6 44h-33.6v-.8z" fill="#3c58bf"/><path d="M448.8 180.4c-9.6 0-16.8.8-20.8 10.4l-69.6 133.6h43.2l8-24h51.2l4.8 24H504l-33.6-144h-21.6zm-28 96c3.2-8 16-42.4 16-42.4s3.2-8.8 5.6-14.4l2.4 13.6s8 36 9.6 44h-33.6v-.8z" fill="#293688"/><path d="M111.2 281.2l-4-20.8c-7.2-24-30.4-50.4-56-63.2l36 128h43.2l64.8-144H152l-40.8 100z" fill="#3c58bf"/><path d="M111.2 281.2l-4-20.8c-7.2-24-30.4-50.4-56-63.2l36 128h43.2l64.8-144H160l-48.8 100z" fill="#293688"/><path d="M0 180.4l7.2 1.6c51.2 12 86.4 42.4 100 78.4l-14.4-68c-2.4-9.6-9.6-12-18.4-12H0z" fill="#ffbc00"/><path d="M0 180.4c51.2 12 93.6 43.2 107.2 79.2l-13.6-56.8c-2.4-9.6-10.4-15.2-19.2-15.2L0 180.4z" fill="#f7981d"/><path d="M0 180.4c51.2 12 93.6 43.2 107.2 79.2l-9.6-31.2c-2.4-9.6-5.6-19.2-16.8-23.2L0 180.4z" fill="#ed7c00"/><path d="M151.2 276.4L124 249.2l-12.8 30.4-3.2-20c-7.2-24-30.4-50.4-56-63.2l36 128h43.2l20-48zm74.4 48l-34.4-35.2-6.4 35.2zm92-49.6c3.2 3.2 4.8 5.6 4 8.8 0 9.6-12.8 14.4-24 14.4-16 0-24.8-2.4-38.4-8l-5.6-2.4-5.6 32.8c9.6 4 27.2 8 45.6 8 25.6 0 46.4-7.2 58.4-20l-34.4-33.6zm46.4 49.6h37.6l8-24h51.2l4.8 24H504L490.4 266l-48-46.4 2.4 12.8s8 36 9.6 44h-33.6c3.2-8 16-42.4 16-42.4s3.2-8.8 5.6-14.4" fill="#051244"/></symbol><symbol viewBox="0 0 112.196 112.196" id="vk" xmlns="http://www.w3.org/2000/svg"><circle cx="56.098" cy="56.098" r="56.098" fill="#4d76a1"/><path d="M53.979 80.702h4.403s1.33-.146 2.009-.878c.625-.672.605-1.934.605-1.934s-.086-5.908 2.656-6.778c2.703-.857 6.174 5.71 9.853 8.235 2.782 1.911 4.896 1.492 4.896 1.492l9.837-.137s5.146-.317 2.706-4.363c-.2-.331-1.421-2.993-7.314-8.463-6.168-5.725-5.342-4.799 2.088-14.702 4.525-6.031 6.334-9.713 5.769-11.29-.539-1.502-3.867-1.105-3.867-1.105l-11.076.069s-.821-.112-1.43.252c-.595.357-.978 1.189-.978 1.189s-1.753 4.667-4.091 8.636c-4.932 8.375-6.904 8.817-7.71 8.297-1.875-1.212-1.407-4.869-1.407-7.467 0-8.116 1.231-11.5-2.397-12.376-1.204-.291-2.09-.483-5.169-.514-3.952-.041-7.297.012-9.191.94-1.26.617-2.232 1.992-1.64 2.071.732.098 2.39.447 3.269 1.644 1.135 1.544 1.095 5.012 1.095 5.012s.652 9.554-1.523 10.741c-1.493.814-3.541-.848-7.938-8.446-2.253-3.892-3.954-8.194-3.954-8.194s-.328-.804-.913-1.234c-.71-.521-1.702-.687-1.702-.687l-10.525.069s-1.58.044-2.16.731c-.516.611-.041 1.875-.041 1.875s8.24 19.278 17.57 28.993c8.555 8.907 18.27 8.322 18.27 8.322z" fill-rule="evenodd" clip-rule="evenodd" fill="#fff"/></symbol><symbol viewBox="0 0 49.888 49.888" fill="#fff" id="webmoney-pay" xmlns="http://www.w3.org/2000/svg"><path d="M45.903 25.934l1.17-1.058 1.058 1.17-1.171 1.058zm-2.724 1.3l1.561-1.406 1.406 1.562-1.561 1.406zm5.226-2.027l.78-.703.703.78-.78.703zm-4.585-4.102l1.172-1.055 1.055 1.172-1.172 1.055zm3.588 1.771l.779-.703.704.78-.779.702zm-42.175-.637l-.765 3.965h-.053l-1.042-3.965h-.667l-.974 3.965h-.053L.84 22.239H0l1.214 5.314h.81l.989-3.741h.053l1.019 3.741h.81l1.215-5.314zm36.836 2.29l1.563-1.407 1.406 1.562-1.563 1.407zm-1.115-2.663l1.562-1.406 1.406 1.562-1.562 1.406zm3.946 1.596l1.168-1.055 1.058 1.171-1.17 1.056zm1.504-2.902l.78-.703.703.78-.78.702zm-12.049 3.282l-.851 2.761h-.045l-.959-2.76h-.824l1.438 3.749c-.18.555-.494.959-1.004.959v.613c.861 0 1.318-.539 1.693-1.574l1.355-3.748h-.803zM9.542 25.547c.001-1.225-.576-1.83-1.513-1.83-1.124 0-1.701.823-1.701 1.963 0 1.185.518 1.964 1.776 1.964.539 0 .989-.15 1.326-.347v-.567c-.412.245-.787.389-1.191.389-.771 0-1.139-.396-1.139-1.297h2.442v-.275zm-2.427-.228c.082-.748.435-1.101.892-1.101.405 0 .787.313.824 1.101H7.115zM46.934 28.3l1.171-1.056 1.057 1.172-1.172 1.056zm-15.495-2.753c.002-1.225-.576-1.83-1.512-1.83-1.125 0-1.701.823-1.701 1.963 0 1.185.517 1.964 1.775 1.964.539 0 .987-.15 1.325-.347v-.567c-.411.245-.786.389-1.19.389-.771 0-1.14-.396-1.14-1.297h2.443v-.275zm-2.428-.228c.084-.748.437-1.101.894-1.101.403 0 .787.313.824 1.101h-1.718z"/><path d="M46.05 28.572l-1.527 1.408-2.578-2.869.717-.631-1.805-2.021.721-.632-1.832-2.019 2.859-2.574.908.994 1.533-1.368.906.939.604-.541a6.539 6.539 0 00-3.286-.881c-3.617 0-6.568 2.95-6.568 6.568 0 3.617 2.951 6.567 6.568 6.567a6.516 6.516 0 003.237-.856c.315-.178.602-.371.864-.574l-1.321-1.51zm-34.034-4.855c-.405 0-.787.157-1.013.277v-2.136l-.779.187v5.231c.45.239 1.064.367 1.462.367 1.087 0 1.761-.683 1.761-2.085 0-1.197-.502-1.841-1.431-1.841zm-.33 3.401c-.188 0-.449-.014-.689-.119v-2.451c.3-.165.518-.247.816-.247.502 0 .848.308.848 1.258 0 1.214-.42 1.559-.975 1.559zm14.607-3.403c-.862 0-1.574.352-1.911.554v3.282h.778v-2.967c.232-.135.615-.27.914-.27.385 0 .676.105.676.697v2.541h.779V24.84c0-.771-.338-1.123-1.236-1.125zm-7.794-1.476l-1.602 4.189h-.038l-1.679-4.189h-.906v5.314h.674V23.79h.067l1.529 3.763h.479l1.529-3.854h.067v3.854h.809v-5.314zm3.462 1.478c-.989 0-1.709.652-1.709 1.963 0 1.281.683 1.964 1.709 1.964 1.027 0 1.709-.683 1.709-1.964 0-1.312-.72-1.963-1.709-1.963zm0 3.401c-.532 0-.922-.41-.922-1.438 0-1.012.428-1.439.922-1.439.51 0 .922.427.922 1.439 0 1.027-.39 1.438-.922 1.438z"/></symbol><symbol viewBox="0 0 24 24" id="whatsapp" xmlns="http://www.w3.org/2000/svg"><path d="M20.52 3.449C18.24 1.245 15.24 0 12.045 0 2.875 0-2.883 9.935 1.696 17.838L0 24l6.335-1.652c2.76 1.491 5.021 1.359 5.716 1.447 10.633 0 15.926-12.864 8.454-20.307z" fill="#eceff1"/><path d="M12.067 21.751l-.006-.001h-.016c-3.182 0-5.215-1.507-5.415-1.594l-3.75.975 1.005-3.645-.239-.375a9.869 9.869 0 01-1.516-5.26c0-8.793 10.745-13.19 16.963-6.975 6.203 6.15 1.848 16.875-7.026 16.875z" fill="#4caf50"/><path d="M17.507 14.307l-.009.075c-.301-.15-1.767-.867-2.04-.966-.613-.227-.44-.036-1.617 1.312-.175.195-.349.21-.646.075-.3-.15-1.263-.465-2.403-1.485-.888-.795-1.484-1.77-1.66-2.07-.293-.506.32-.578.878-1.634.1-.21.049-.375-.025-.524-.075-.15-.672-1.62-.922-2.206-.24-.584-.487-.51-.672-.51-.576-.05-.997-.042-1.368.344-1.614 1.774-1.207 3.604.174 5.55 2.714 3.552 4.16 4.206 6.804 5.114.714.227 1.365.195 1.88.121.574-.091 1.767-.721 2.016-1.426.255-.705.255-1.29.18-1.425-.074-.135-.27-.21-.57-.345z" fill="#fafafa"/></symbol><symbol viewBox="0 0 96.98 96.98" id="wordpress" xmlns="http://www.w3.org/2000/svg"><path d="M49.16 51.833L37.694 85.152a38.323 38.323 0 0010.798 1.558c4.449 0 8.719-.77 12.689-2.167a3.393 3.393 0 01-.271-.527L49.16 51.833zm-38.888-3.345c0 15.129 8.792 28.202 21.541 34.396l-18.23-49.949a38.082 38.082 0 00-3.311 15.553z"/><path d="M74.289 46.56c0-4.723-1.695-7.993-3.149-10.541-1.938-3.148-3.754-5.813-3.754-8.962 0-3.513 2.664-6.783 6.418-6.783.17 0 .33.021.496.029-6.798-6.227-15.856-10.031-25.807-10.031-13.354 0-25.101 6.85-31.932 17.227a84.82 84.82 0 002.459.046c3.998 0 10.187-.485 10.187-.485 2.062-.124 2.302 2.903.245 3.146 0 0-2.071.243-4.374.365l13.915 41.397 8.363-25.085L41.4 30.57a70.58 70.58 0 01-4.007-.365c-2.058-.12-1.818-3.268.241-3.146 0 0 6.313.485 10.066.485 3.997 0 10.188-.485 10.188-.485 2.062-.122 2.303 2.903.243 3.146 0 0-2.073.243-4.374.365L67.57 71.653l3.812-12.738c1.651-5.286 2.907-9.084 2.907-12.355zm7.736-16.407c.164 1.216.258 2.525.258 3.93 0 3.878-.723 8.238-2.905 13.689L67.703 81.523c11.361-6.626 19.006-18.936 19.006-33.033a37.995 37.995 0 00-4.684-18.337z"/><path d="M48.49 0C21.71 0 .001 21.71.001 48.49S21.71 96.98 48.49 96.98s48.489-21.71 48.489-48.49S75.27 0 48.49 0zm.002 90.997c-23.44 0-42.507-19.067-42.507-42.509 0-23.438 19.066-42.505 42.507-42.505 23.437 0 42.503 19.068 42.503 42.505.001 23.44-19.067 42.509-42.503 42.509z"/></symbol><symbol viewBox="0 -43 512 512" id="writing" xmlns="http://www.w3.org/2000/svg"><path d="M405.379 361.273a7.499 7.499 0 00-10.352 2.317c-18.73 29.52-50.754 47.144-85.664 47.144H116.367C60.473 410.734 15 365.258 15 309.364V129.62c0-4.14-3.36-7.5-7.5-7.5s-7.5 3.36-7.5 7.5v179.742c0 64.168 52.203 116.371 116.367 116.371h192.996c40.074 0 76.836-20.23 98.328-54.109a7.502 7.502 0 00-2.312-10.352zM339.44 161.97l-57.183 57.187a7.497 7.497 0 000 10.606 7.468 7.468 0 005.3 2.199 7.48 7.48 0 005.305-2.2l57.184-57.183a7.502 7.502 0 000-10.61c-2.926-2.925-7.676-2.925-10.606 0zM501.148 37.012l-26.14-26.14c-14.469-14.474-38.016-14.474-52.485 0l-27.136 27.136C373.34 13.758 342.44 0 309.363 0H116.367C89.597 0 63.461 9.316 42.77 26.23 22.37 42.902 8.102 66.195 2.598 91.812a7.5 7.5 0 007.34 9.079c3.46 0 6.57-2.407 7.324-5.926 4.797-22.305 17.222-42.59 35-57.121C70.282 23.114 93.047 15 116.367 15h192.996c29.047 0 56.168 12.18 75.403 33.629l-79.758 79.758H95.863a7.5 7.5 0 100 15h194.145l-35.961 35.957H95.863a7.503 7.503 0 100 15.004h143.184l-46.524 46.523a168.62 168.62 0 00-32.78 46.207l-21.348 44.348c-5.907 12.277-3.5 26.433 6.132 36.066 6.125 6.125 14.082 9.328 22.223 9.328 4.656 0 9.375-1.05 13.84-3.199l21.515-10.355c.004-.004.012-.004.016-.008l22.82-10.98a168.737 168.737 0 0046.207-32.782L410.734 179.91v129.453c0 8.215-.984 16.383-2.925 24.282a7.498 7.498 0 005.496 9.07 7.498 7.498 0 009.07-5.492 116.742 116.742 0 003.36-27.86V164.91l20.847-20.847c.004-.004.004-.004.004-.008.004 0 .004 0 .004-.004l54.558-54.555c14.47-14.473 14.47-38.016 0-52.484zM174.086 360.105c-7.828 3.77-14.922.81-18.953-3.218-4.028-4.032-6.988-11.125-3.219-18.953l6.328-13.153a185.437 185.437 0 0115.301 13.696 185.437 185.437 0 0113.695 15.3zm44.348-21.343l-17.356 8.351a199.39 199.39 0 00-16.93-19.242 199.794 199.794 0 00-19.242-16.93l8.352-17.355c5.765-11.973 13-23.07 21.582-33.125l56.719 56.719a153.722 153.722 0 01-33.125 21.582zm44.078-31.844l-57.41-57.41L373.266 81.34l57.41 57.41zm178.773-178.773l-57.41-57.41 18.516-18.516 57.414 57.41zm49.258-49.258L470.41 99.02 413 41.61l20.129-20.133c4.312-4.313 9.973-6.465 15.637-6.465 5.66 0 11.324 2.152 15.632 6.465l26.141 26.14c8.621 8.621 8.621 22.649.004 31.27zM95.863 92.426h234.008a7.5 7.5 0 100-15H95.863a7.5 7.5 0 100 15zm0 0"/></symbol><symbol viewBox="0 0 49.079 49.079" fill="#fff" id="yandex-pay" xmlns="http://www.w3.org/2000/svg"><path d="M49.061 25.294c-.065-.375-.381-.6-.838-.605-.141-.002-.281.012-.418-.003-.27-.028-.341.062-.339.276.013 1.05.009 2.099.005 3.146-.003.549-.539 1.113-1.183 1.256-2 .439-3.998.885-6 1.32a3.156 3.156 0 01-.691.072c-.1 0-.238-.076-.281-.15-.028-.049.06-.168.129-.229.091-.074.207-.133.326-.174.367-.131.74-.25 1.111-.373 1.485-.494 2.973-.982 4.456-1.479.669-.226 1.03-.672 1.041-1.235.034-1.824.017-3.648.009-5.474 0-.289-.15-.53-.494-.655-.396-.142-.744-.029-1.088.135a6103.037 6103.037 0 01-6.307 3.005c-.619.295-.964.722-.961 1.33.007 1.725.002 3.447.004 5.17 0 .086.009.174.036.256.207.586.744.922 1.486.922 1.479.004 2.963.002 4.443.002 1.475 0 2.945.002 4.42-.002.32 0 .615-.066.855-.264.311-.25.295-.568.295-.885.003-1.68.003-3.358.001-5.041a1.65 1.65 0 00-.017-.321zm-6.15-.539c.149-.387.474-.629.97-.691.328-.042.614.161.661.457.071.456-.499.986-1.062.984-.47 0-.732-.329-.569-.75zM7.612 18.087v1.579H6.43v-1.584h-.618v3.908h.637v-1.75h1.167v1.752h.629v-3.905h-.633zm15.721 10.757c-.186-.929-.892-1.493-2.019-1.586-.444-.034-.896-.006-1.375-.006v-2.473h-.964v6.876c.713 0 1.402.041 2.082-.011 1.019-.076 1.796-.481 2.16-1.312.212-.482.216-.984.116-1.488zm-1.491 1.042c-.179.76-.957 1.118-1.895.896 0-.844-.004-1.674.008-2.506 0-.055.096-.145.165-.158.938-.199 1.565.113 1.728.896.058.281.06.59-.006.872zM4.305 15.98c-.341 0-.68.001-1.02 0a1.741 1.741 0 00-1.205.437c-1.123.994-.828 2.882.666 3.285l-1.524 2.294c.213 0 .377-.011.537.003.212.019.321-.05.419-.207.374-.607.771-1.205 1.159-1.807.179-.276.201-.284.623-.203v2.195h.716v-5.7c0-.297-.001-.296-.371-.297zm-.365 3.172c-.487-.005-.995.116-1.366-.249-.425-.417-.546-.899-.389-1.428.013-.042.034-.082.051-.122.316-.727.733-.929 1.704-.808v2.607zm18.063 2.277c-1.061.354-1.793.034-1.985-.89a2.528 2.528 0 01.11-1.428c.236-.638.705-.828 1.485-.617.015.004.033-.003.06-.007l.245-.308c-.644-.423-1.527-.322-2.007.212-.371.412-.516.889-.563 1.39-.053.575.018 1.133.398 1.638.398.528 1.088.776 1.798.61.501-.118.557-.17.459-.6zM5.205 30.843v-6.062H1.584c-.05 1.029-.074 2.041-.156 3.051-.073.896-.271 1.775-.667 2.621-.131.279-.288.463-.688.396-.021-.003-.047.013-.073.023v2.224h1.081v-1.468h3.915V33.1h1.05v-2.257h-.841zm-1.173-.008h-2.37c.202-.506.449-1.004.599-1.521.301-1.039.299-2.105.307-3.168.002-.164 0-.33 0-.51h1.465l-.001 5.199zm11.349-9.353c-.183.053-.359.117-.543.154-.513.104-.879-.01-1.074-.333-.229-.378-.218-.784-.204-1.209h1.935c.042-.636-.036-1.232-.439-1.774-.354-.476-.967-.552-1.454-.161a1.851 1.851 0 00-.445.523 2.675 2.675 0 00-.346 1.677c.045.359.144.724.297 1.062.222.497.735.751 1.328.688a3.81 3.81 0 00.844-.205c.301-.104.309-.2.101-.422zm-1.5-2.866c.218-.271.578-.263.771.021.216.315.242.663.233 1.028h-1.348c.021-.382.094-.736.344-1.049zm3.279 6.293c-.042-.051-.095-.128-.148-.13-.319-.013-.639-.008-.992-.008v2.826h-2.07v-2.821h-1.104v6.902h1.118v-2.682c0-.443 0-.443.53-.443h1.534v3.127h1.122c.005-.076.013-.141.013-.203v-6.484c0-.029.014-.065-.003-.084zm.617-5.294c.386-.444.755-.897 1.13-1.346.046-.055.086-.113.15-.197-.121 0-.192.008-.259-.001-.274-.037-.441.052-.59.248-.329.432-.694.844-1.046 1.263-.04.047-.09.088-.186.181v-1.68h-.611v3.815h.62c0-.453-.01-.897.006-1.339.006-.152.076-.304.116-.456.119.073.17.138.215.206.319.479.634.958.956 1.434.042.063.114.148.182.157.182.023.369.008.594.008-.448-.682-.866-1.326-1.294-1.967-.081-.12-.087-.207.017-.326zm14.689 5.142c-.18-.006-.261.045-.325.182-.433.954-.877 1.903-1.318 2.854-.193.416-.393.832-.588 1.248l-.053-.008v-4.259h-1.117v6.912h1.097c.697-1.506 1.394-3.018 2.097-4.543v4.539h1.262v-6.92c-.363 0-.709.01-1.055-.005zm-21.151 5.936c-.343.106-.652.227-.978.294-1.059.217-1.751-.076-2.053-.844-.233-.59-.224-1.199-.234-1.842h3.456c-.048-.535-.053-1.057-.15-1.562-.123-.633-.367-1.24-.872-1.75-.447-.451-.985-.582-1.656-.4-.697.189-1.122.627-1.408 1.146-.838 1.523-.91 3.092-.268 4.674.193.478.52.894 1.064 1.16.912.449 2.387.293 3.312-.354l-.213-.522zm-2.743-4.895c.163-.229.38-.416.744-.399.356.019.567.205.71.447.316.543.369 1.125.366 1.729H8.017c.06-.639.172-1.238.555-1.777zm3.262-4.327v-3.389H9.791c0 .254.009.482-.001.711-.034.796-.063 1.593-.395 2.355-.082.188-.143.389-.46.347v1.23h.589v-.799h2.213v.795h.557v-1.232l-.46-.018zm-.645 0H9.813c.597-.924.516-1.917.559-2.908h.817v2.908zm13.178 3.301c0 2.314 0 4.611.003 6.909h1.021v-6.214h3.113v-.695h-4.137z"/></symbol></svg>